<?xml version="1.0" encoding="UTF-8"?>
<svg version="1.1" xmlns="http://www.w3.org/2000/svg" width="256" height="256">
<path d="M0 0 C0.96574331 -0.00679667 0.96574331 -0.00679667 1.95099658 -0.01373065 C4.10035462 -0.02635324 6.24945857 -0.0247557 8.39884949 -0.02310181 C9.94324061 -0.02908844 11.48762873 -0.0358943 13.03201294 -0.04345703 C17.22221905 -0.06111142 21.41234346 -0.0658122 25.60258317 -0.0670886 C28.22236557 -0.06851118 30.84212727 -0.07278283 33.46190453 -0.07808304 C42.6069152 -0.0965821 51.7518676 -0.10475389 60.89689636 -0.10317993 C69.41239357 -0.10197886 77.92763718 -0.12307478 86.44307023 -0.15466726 C93.76129432 -0.18084749 101.07943567 -0.19154648 108.39770621 -0.19026911 C112.765328 -0.18975995 117.13272443 -0.19541748 121.50029945 -0.21662521 C125.61015651 -0.23603691 129.71957392 -0.23611227 133.82944679 -0.22159195 C135.33383834 -0.21950631 136.83825762 -0.22419021 138.34260178 -0.23631287 C147.49883263 -0.30529126 154.50132179 -0.07287525 161.69645691 6.23226929 C162.23528503 6.88324585 162.77411316 7.53422241 163.32926941 8.20492554 C163.88356628 8.85332397 164.43786316 9.50172241 165.00895691 10.16976929 C168.91673933 15.84133459 168.75085396 21.13596744 168.74479675 27.80575562 C168.75151398 28.86652817 168.7582312 29.92730072 168.76515198 31.0202179 C168.7841446 34.52584523 168.78805691 38.03128121 168.79020691 41.53695679 C168.79663418 43.97687356 168.80336249 46.41678956 168.81037903 48.85670471 C168.82235513 53.97190131 168.82605952 59.08703036 168.82487488 64.20223999 C168.82467173 70.74926511 168.85196896 77.29585597 168.8864193 83.84277821 C168.90868298 88.88289877 168.91271256 93.92291476 168.91165543 98.96307945 C168.91401236 101.37635481 168.92284104 103.78963301 168.93832016 106.20285988 C168.95796751 109.58251767 168.95214605 112.96123822 168.94010925 116.34091187 C168.95134827 117.33287567 168.96258728 118.32483948 168.97416687 119.34686279 C168.90840451 126.63199759 167.33546614 131.97953901 162.48942566 137.50961304 C161.8384491 138.04844116 161.18747253 138.58726929 160.51676941 139.14242554 C159.86837097 139.69672241 159.21997253 140.25101929 158.55192566 140.82211304 C153.72227139 144.14980779 149.60146064 144.4813642 143.87394714 144.12606812 C142.31772675 144.05163692 140.7614488 143.97840202 139.2051239 143.90618896 C137.96973122 143.84456133 137.96973122 143.84456133 136.7093811 143.78168869 C79.40524355 140.94466656 79.40524355 140.94466656 30.41911316 167.76351929 C28.55917706 169.46135668 26.72476358 171.17623986 24.92019653 172.93269348 C21.49276661 176.05338108 19.04368434 176.53531161 14.48942566 176.72836304 C11.46825401 176.04410535 10.37105561 174.67037641 8.45426941 172.26742554 C8.00016785 169.24301147 8.00016785 169.24301147 8.06364441 165.75180054 C8.08298035 163.8762146 8.08298035 163.8762146 8.10270691 161.96273804 C8.13622253 160.66078491 8.16973816 159.35883179 8.20426941 158.01742554 C8.22231628 156.70000366 8.24036316 155.38258179 8.25895691 154.02523804 C8.3061067 150.77190246 8.37190897 147.52002929 8.45426941 144.26742554 C7.46426941 144.31383179 6.47426941 144.36023804 5.45426941 144.40805054 C-8.90806703 144.88825024 -8.90806703 144.88825024 -14.54573059 140.26742554 C-20.08895317 134.97817531 -23.57442813 130.38923011 -23.81315613 122.54396057 C-23.83110978 120.60574005 -23.83801821 118.66739833 -23.83625793 116.72909546 C-23.84297516 115.66832291 -23.84969238 114.60755035 -23.85661316 113.51463318 C-23.87560579 110.00900585 -23.87951809 106.50356986 -23.88166809 102.99789429 C-23.88809536 100.55797751 -23.89482367 98.11806151 -23.90184021 95.67814636 C-23.91381631 90.56294976 -23.91752071 85.44782072 -23.91633606 80.33261108 C-23.91613291 73.78558597 -23.94343014 67.23899511 -23.97788048 60.69207287 C-24.00014417 55.65195231 -24.00417374 50.61193632 -24.00311661 45.57177162 C-24.00547354 43.15849626 -24.01430222 40.74521806 -24.02978134 38.3319912 C-24.04942869 34.9523334 -24.04360723 31.57361286 -24.03157043 28.19393921 C-24.04280945 27.2019754 -24.05404846 26.2100116 -24.06562805 25.18798828 C-23.9998657 17.90285348 -22.42692732 12.55531207 -17.58088684 7.02523804 C-16.92991028 6.48640991 -16.27893372 5.94758179 -15.60823059 5.39242554 C-14.95983215 4.83812866 -14.31143372 4.28383179 -13.64338684 3.71273804 C-9.18858757 0.64332327 -5.36031972 0.01562072 0 0 Z " fill="#D7E0EF" transform="translate(55.54573059082031,39.732574462890625)"/>
<path d="M0 0 C5.63791765 3.19255578 10.57262498 7.57684948 13.29296875 13.53125 C14.35509598 17.71615849 14.26698563 21.99899156 14.37280273 26.29516602 C14.57186033 30.58579435 15.07051019 33.24070682 17.9453125 36.4765625 C18.9353125 37.3428125 19.9253125 38.2090625 20.9453125 39.1015625 C22.63777625 42.48649 22.13019523 46.33023795 22.1484375 50.0546875 C22.15413757 50.94766541 22.15983765 51.84064331 22.16571045 52.76068115 C22.17516736 54.65375583 22.18169717 56.54684702 22.18554688 58.43994141 C22.19522724 61.32614226 22.22623341 64.21162339 22.2578125 67.09765625 C22.26434514 68.93749577 22.26959459 70.77734039 22.2734375 72.6171875 C22.2857843 73.47677063 22.2981311 74.33635376 22.31085205 75.22198486 C22.28966259 80.96887885 21.4728545 85.3304813 17.4453125 89.74609375 C9.97899842 95.5597081 1.6981719 94.42996376 -7.35864258 94.5065918 C-9.27223797 94.5281402 -11.18573564 94.56220568 -13.09887695 94.60913086 C-15.86974731 94.67642103 -18.63858205 94.70363824 -21.41015625 94.72265625 C-22.25627975 94.75048691 -23.10240326 94.77831757 -23.97416687 94.80699158 C-29.65902712 94.78753267 -33.07141732 93.48500471 -37.41497803 89.77760315 C-42.39572873 84.68649355 -42.51158757 79.48250519 -42.48828125 72.7578125 C-42.4935231 71.87049438 -42.49876495 70.98317627 -42.50416565 70.06896973 C-42.5105665 68.19979902 -42.50927403 66.33058793 -42.50073242 64.46142578 C-42.49221352 61.61027046 -42.52102429 58.76111443 -42.55273438 55.91015625 C-42.55434644 54.08854226 -42.55376875 52.26692475 -42.55078125 50.4453125 C-42.56201523 49.59827759 -42.57324921 48.75124268 -42.58482361 47.87854004 C-42.52152165 42.47323905 -41.62503769 39.40520705 -38.0546875 35.1015625 C-37.48621094 34.64136719 -36.91773437 34.18117187 -36.33203125 33.70703125 C-34.18393381 31.00712896 -34.65343816 27.72495623 -34.6171875 24.4140625 C-34.22944234 14.95645231 -32.53085016 10.19158482 -25.6171875 3.7265625 C-18.17554217 -2.77031742 -9.10811562 -3.94562094 0 0 Z " fill="#6A68D9" transform="translate(138.0546875,65.8984375)"/>
<path d="M0 0 C5.58917891 3.16495673 10.65104711 7.58066123 13.3359375 13.50390625 C14.75960879 19.57276142 14.15112741 25.9271153 13.9453125 32.1015625 C8.6653125 31.4415625 3.3853125 30.7815625 -2.0546875 30.1015625 C-2.1784375 27.5028125 -2.1784375 27.5028125 -2.3046875 24.8515625 C-2.63670749 21.31759628 -2.83707037 19.44813793 -4.7421875 16.4140625 C-7.81231561 14.67155736 -9.57681076 14.52191638 -13.0546875 15.1015625 C-15.5914984 16.2998142 -15.5914984 16.2998142 -17.0546875 19.1015625 C-17.68143111 22.76195584 -17.92680167 26.39287344 -18.0546875 30.1015625 C-18.95832031 30.16214844 -19.86195312 30.22273438 -20.79296875 30.28515625 C-21.97246094 30.36894531 -23.15195313 30.45273438 -24.3671875 30.5390625 C-25.53894531 30.62027344 -26.71070312 30.70148438 -27.91796875 30.78515625 C-31.08059708 30.9882996 -31.08059708 30.9882996 -34.0546875 32.1015625 C-34.85449111 13.79494657 -34.85449111 13.79494657 -30.0546875 8.1015625 C-21.4815321 -0.82347614 -12.08415832 -5.23483781 0 0 Z " fill="#03A6F3" transform="translate(138.0546875,65.8984375)"/>
<path d="M0 0 C2.875 1.8125 2.875 1.8125 5 5 C5.41846508 8.77148279 5.22984488 12.18457498 5 16 C-0.28 16 -5.56 16 -11 16 C-11.60773481 5.91160221 -11.60773481 5.91160221 -8.875 1.8125 C-5.45015775 -0.34663968 -3.96628159 -0.82630866 0 0 Z " fill="#D3DFEF" transform="translate(131,80)"/>
<path d="M0 0 C2.0625 1.5625 2.0625 1.5625 3 4 C3.17821261 6.85140177 2.92914963 9.292848 2 12 C-0.93837168 14.85194898 -2.53597436 15 -6.625 15 C-10 14 -10 14 -12 11.875 C-13.30782688 8.11499772 -13.06090617 5.81926223 -12 2 C-8.81688665 -2.07438508 -4.54417813 -1.38635943 0 0 Z " fill="#05A3F2" transform="translate(133,121)"/>
</svg>
