<svg xmlns="http://www.w3.org/2000/svg" width="32px" height="32px" viewBox="0 0 14 13" version="1.1">
                  <g stroke="none" strokeWidth="1" fillRule="evenodd">
                    <g className="md:fill-current" fill="var(--color-font-secondary)" transform="translate(-1505.000000, -525.000000)">
                      <g transform="translate(1505.542969, 525.103800)">
                        <path d="M3.48046875,12.1582031 C3.59765625,12.1582031 3.70410156,12.1279297 3.79980469,12.0673828 C3.89550781,12.0068359 4.01367188,11.9121094 4.15429688,11.7832031 L6.26953125,9.84960938 L10.2304688,9.85546875 C10.8125,9.85546875 11.3027344,9.75097656 11.7011719,9.54199219 C12.0996094,9.33300781 12.4013672,9.02929688 12.6064453,8.63085938 C12.8115234,8.23242188 12.9140625,7.74609375 12.9140625,7.171875 L12.9140625,2.68359375 C12.9140625,2.109375 12.8115234,1.62304687 12.6064453,1.22460938 C12.4013672,0.826171875 12.0996094,0.522460938 11.7011719,0.313476562 C11.3027344,0.104492188 10.8125,0 10.2304688,0 L2.68359375,0 C2.1015625,0 1.61132812,0.104492188 1.21289062,0.313476562 C0.814453125,0.522460938 0.512695312,0.826171875 0.307617188,1.22460938 C0.102539062,1.62304687 0,2.109375 0,2.68359375 L0,7.171875 C0,7.74609375 0.102539062,8.23242188 0.307617188,8.63085938 C0.512695312,9.02929688 0.814453125,9.33203125 1.21289062,9.5390625 C1.61132812,9.74609375 2.1015625,9.84960938 2.68359375,9.84960938 L2.95898438,9.84960938 L2.95898438,11.5546875 C2.95898438,11.7382812 3.00390625,11.8847656 3.09375,11.9941406 C3.18359375,12.1035156 3.3125,12.1582031 3.48046875,12.1582031 Z M2.98242188,4.78125 C2.54101562,4.78125 2.3203125,4.56445312 2.3203125,4.13085938 L2.3203125,2.9296875 C2.3203125,2.5 2.54101562,2.28515625 2.98242188,2.28515625 L5.63085938,2.28515625 C6.07226562,2.28515625 6.29296875,2.5 6.29296875,2.9296875 L6.29296875,4.13085938 C6.29296875,4.56445312 6.07226562,4.78125 5.63085938,4.78125 L2.98242188,4.78125 Z M3.71484375,7.55859375 C3.27734375,7.55859375 3.05859375,7.34179688 3.05859375,6.90820312 L3.05859375,6.09375 C3.05859375,5.65625 3.27734375,5.4375 3.71484375,5.4375 L5.99414062,5.4375 C6.42773438,5.4375 6.64453125,5.65625 6.64453125,6.09375 L6.64453125,6.90820312 C6.64453125,7.34179688 6.42773438,7.55859375 5.99414062,7.55859375 L3.71484375,7.55859375 Z M7.97460938,7.20117188 C7.53710938,7.20117188 7.31835938,6.98242188 7.31835938,6.54492188 L7.31835938,3.34570312 C7.31835938,2.90820312 7.53710938,2.68945312 7.97460938,2.68945312 L9.86132812,2.68945312 C10.2988281,2.68945312 10.5175781,2.90820312 10.5175781,3.34570312 L10.5175781,6.54492188 C10.5175781,6.98242188 10.2988281,7.20117188 9.86132812,7.20117188 L7.97460938,7.20117188 Z" />
                      </g>
                    </g>
                  </g>
                </svg>