<svg xmlns="http://www.w3.org/2000/svg" width="24" height="24" viewBox="0 0 512 512">
  <path fill="currentColor" d="M143,0.12C143,0.12 170,0.12 170,0.12 170,0.12 217,0.12 217,0.12 217,0.12 361,0.12 361,0.12 383.9,0.04 399.96,16.1 400,39 400,39 400,233 400,233 400,233 400,394 400,394 400,394 400,475 400,475 399.74,496.85 382.26,511.97 361,512 361,512 149,512 149,512 128,511.75 112.03,494.74 112,474 112,474 112,115 112,115 112,115 112,38 112,38 112.03,18.85 124.46,4.59 143,0.12ZM193,16C193,16 151,16 151,16 136.01,16.18 128.02,26.71 128,41 128,41 128,373 128,373 128,373 128,471 128,471 128.03,487.83 137.6,495.97 154,496 154,496 330,496 330,496 330,496 350,496 350,496 364.06,496 377.75,496.71 382.95,480 384.11,476.27 383.99,473.81 384,470 384,470 384,121 384,121 384,121 384,42 384,42 383.97,25.5 375.88,16.03 359,16 359,16 319,16 319,16 315.58,27.6 307.37,31.98 296,32 296,32 216,32 216,32 204.63,31.98 196.42,27.6 193,16Z"/>
</svg>