<svg width="1024" height="341" viewBox="0 0 1024 341" fill="none" xmlns="http://www.w3.org/2000/svg">
<rect width="1024" height="341" fill="#060F2F"/>
<circle cx="734.909" cy="194.488" r="3.07443" transform="rotate(-180 734.909 194.488)" fill="white" fill-opacity="0.2"/>
<circle cx="700.536" cy="264.935" r="1.53721" transform="rotate(-180 700.536 264.935)" fill="white" fill-opacity="0.2"/>
<circle cx="669.326" cy="202.687" r="2.04962" transform="rotate(-180 669.326 202.687)" fill="white" fill-opacity="0.2"/>
<circle cx="648.826" cy="60.2375" r="2.04962" transform="rotate(-180 648.826 60.2375)" fill="white" fill-opacity="0.2"/>
<circle cx="525.099" cy="43.998" r="1" transform="rotate(-180 525.099 43.998)" fill="white" fill-opacity="0.2"/>
<circle cx="746.654" cy="33.3937" r="2.04962" transform="rotate(-180 746.654 33.3937)" fill="white" fill-opacity="0.2"/>
<circle cx="724.999" cy="100.398" r="3" transform="rotate(-180 724.999 100.398)" fill="white" fill-opacity="0.2"/>
<circle cx="649.465" cy="170.279" r="2.04962" transform="rotate(-180 649.465 170.279)" fill="white" fill-opacity="0.2"/>
<circle cx="708.499" cy="231.398" r="1" transform="rotate(-180 708.499 231.398)" fill="white" fill-opacity="0.2"/>
<circle cx="555.654" cy="25.3937" r="2.04962" transform="rotate(-180 555.654 25.3937)" fill="white" fill-opacity="0.2"/>
<circle cx="492.037" cy="37.6867" r="2.04962" transform="rotate(-180 492.037 37.6867)" fill="white" fill-opacity="0.2"/>
<circle cx="456.654" cy="14.3957" r="2.04962" transform="rotate(-180 456.654 14.3957)" fill="white" fill-opacity="0.2"/>
<circle cx="504.049" cy="173.048" r="2.04962" transform="rotate(-180 504.049 173.048)" fill="white" fill-opacity="0.2"/>
<circle cx="644.499" cy="138.9" r="1" transform="rotate(-180 644.499 138.9)" fill="white" fill-opacity="0.2"/>
<circle cx="642.5" cy="306.998" r="1" transform="rotate(-180 642.5 306.998)" fill="white" fill-opacity="0.2"/>
<circle cx="668.5" cy="304.998" r="1" transform="rotate(-180 668.5 304.998)" fill="white" fill-opacity="0.2"/>
<circle cx="693.5" cy="324.498" r="1" transform="rotate(-180 693.5 324.498)" fill="white" fill-opacity="0.2"/>
<circle cx="675.5" cy="284.498" r="1" transform="rotate(-180 675.5 284.498)" fill="white" fill-opacity="0.2"/>
<circle cx="716.499" cy="70.3984" r="1" transform="rotate(-180 716.499 70.3984)" fill="white" fill-opacity="0.2"/>
<circle cx="677.604" cy="99.3457" r="1" transform="rotate(-180 677.604 99.3457)" fill="white" fill-opacity="0.2"/>
<circle cx="735.604" cy="146.346" r="1" transform="rotate(-180 735.604 146.346)" fill="white" fill-opacity="0.2"/>
<circle cx="759.499" cy="96.3984" r="1" transform="rotate(-180 759.499 96.3984)" fill="white" fill-opacity="0.2"/>
<circle cx="755.499" cy="108.9" r="1" transform="rotate(-180 755.499 108.9)" fill="white" fill-opacity="0.2"/>
<circle cx="701.499" cy="180.9" r="1" transform="rotate(-180 701.499 180.9)" fill="white" fill-opacity="0.2"/>
<circle cx="433.619" cy="71.509" r="2.04962" transform="rotate(-180 433.619 71.509)" fill="white" fill-opacity="0.2"/>
<circle cx="469.488" cy="151.446" r="2.04962" transform="rotate(-180 469.488 151.446)" fill="white" fill-opacity="0.2"/>
<circle cx="383.402" cy="171.935" r="2.04962" transform="rotate(-180 383.402 171.935)" fill="white" fill-opacity="0.2"/>
<circle cx="430.654" cy="116.396" r="2.04962" transform="rotate(-180 430.654 116.396)" fill="white" fill-opacity="0.2"/>
<circle cx="420.049" cy="228.45" r="2.04962" transform="rotate(-180 420.049 228.45)" fill="white" fill-opacity="0.2"/>
<circle cx="356.75" cy="218.058" r="2.04962" transform="rotate(-180 356.75 218.058)" fill="white" fill-opacity="0.2"/>
<circle cx="329.113" cy="189.383" r="1" transform="rotate(-180 329.113 189.383)" fill="white" fill-opacity="0.2"/>
<circle cx="346.515" cy="138.122" r="2.04962" transform="rotate(-180 346.515 138.122)" fill="white" fill-opacity="0.2"/>
<circle cx="420.289" cy="37.6867" r="2.04962" transform="rotate(-180 420.289 37.6867)" fill="white" fill-opacity="0.2"/>
<circle cx="621.654" cy="18.3937" r="2.04962" transform="rotate(-180 621.654 18.3937)" fill="white" fill-opacity="0.2"/>
<circle cx="370.516" cy="14.7473" r="2.04962" transform="rotate(-180 370.516 14.7473)" fill="white" fill-opacity="0.2"/>
<circle cx="330.109" cy="37.6867" r="2.04962" transform="rotate(-180 330.109 37.6867)" fill="white" fill-opacity="0.2"/>
<circle cx="311.664" cy="25.4016" r="2.04962" transform="rotate(-180 311.664 25.4016)" fill="white" fill-opacity="0.2"/>
<circle cx="343.458" cy="97.1484" r="1" transform="rotate(-180 343.458 97.1484)" fill="white" fill-opacity="0.2"/>
<circle cx="320.919" cy="124.824" r="1" transform="rotate(-180 320.919 124.824)" fill="white" fill-opacity="0.2"/>
<circle cx="281.605" cy="157.346" r="1" transform="rotate(-180 281.605 157.346)" fill="white" fill-opacity="0.2"/>
<circle cx="414.999" cy="267.398" r="1" transform="rotate(-180 414.999 267.398)" fill="white" fill-opacity="0.2"/>
<circle cx="509.999" cy="253.398" r="1" transform="rotate(-180 509.999 253.398)" fill="white" fill-opacity="0.2"/>
<circle cx="518.999" cy="154.9" r="1" transform="rotate(-180 518.999 154.9)" fill="white" fill-opacity="0.2"/>
<circle cx="501" cy="121.5" r="1" transform="rotate(-180 501 121.5)" fill="white" fill-opacity="0.2"/>
<circle cx="512" cy="152.998" r="1" transform="rotate(-180 512 152.998)" fill="white" fill-opacity="0.2"/>
<circle cx="611" cy="131.5" r="1" transform="rotate(-180 611 131.5)" fill="white" fill-opacity="0.2"/>
<circle cx="543.499" cy="285.398" r="1" transform="rotate(-180 543.499 285.398)" fill="white" fill-opacity="0.2"/>
<circle cx="495.499" cy="314.9" r="1" transform="rotate(-180 495.499 314.9)" fill="white" fill-opacity="0.2"/>
<circle cx="588.999" cy="287.398" r="1" transform="rotate(-180 588.999 287.398)" fill="white" fill-opacity="0.2"/>
<circle cx="610.5" cy="322.498" r="1.5" transform="rotate(-180 610.5 322.498)" fill="white" fill-opacity="0.2"/>
<circle cx="275.605" cy="152.346" r="1" transform="rotate(-180 275.605 152.346)" fill="white" fill-opacity="0.2"/>
<circle cx="272.605" cy="159.346" r="1" transform="rotate(-180 272.605 159.346)" fill="white" fill-opacity="0.2"/>
<circle cx="293.215" cy="204.734" r="2.04962" transform="rotate(-180 293.215 204.734)" fill="white" fill-opacity="0.2"/>
<circle cx="247.101" cy="217.027" r="2.04962" transform="rotate(-180 247.101 217.027)" fill="white" fill-opacity="0.2"/>
<circle cx="213.283" cy="193.46" r="2.04962" transform="rotate(-180 213.283 193.46)" fill="white" fill-opacity="0.2"/>
<path d="M219.16 87.2113C219.346 86.8493 219.863 86.8493 220.049 87.2113L220.889 88.8452C220.937 88.9381 221.012 89.0137 221.105 89.0614L222.739 89.901C223.101 90.087 223.101 90.6044 222.739 90.7904L221.105 91.63C221.012 91.6777 220.937 91.7533 220.889 91.8462L220.049 93.4801C219.863 93.8421 219.346 93.8421 219.16 93.4801L218.32 91.8462C218.273 91.7533 218.197 91.6777 218.104 91.63L216.47 90.7904C216.108 90.6044 216.108 90.087 216.47 89.901L218.104 89.0614C218.197 89.0137 218.273 88.9381 218.32 88.8452L219.16 87.2113Z" fill="white" fill-opacity="0.2"/>
<circle cx="258.605" cy="120.344" r="1" transform="rotate(-180 258.605 120.344)" fill="white" fill-opacity="0.2"/>
<circle cx="276.9" cy="82.8574" r="3" transform="rotate(-180 276.9 82.8574)" fill="white" fill-opacity="0.2"/>
<circle cx="276.847" cy="48.9844" r="1" transform="rotate(-180 276.847 48.9844)" fill="white" fill-opacity="0.2"/>
<circle cx="227.638" cy="21.2941" r="2.04962" transform="rotate(-180 227.638 21.2941)" fill="white" fill-opacity="0.2"/>
<circle cx="265.543" cy="38.9484" r="2.04962" transform="rotate(-180 265.543 38.9484)" fill="white" fill-opacity="0.2"/>
<circle cx="203.058" cy="55.1348" r="1" transform="rotate(-180 203.058 55.1348)" fill="white" fill-opacity="0.2"/>
<circle cx="172.287" cy="85.8644" r="2.04962" transform="rotate(-180 172.287 85.8644)" fill="white" fill-opacity="0.2"/>
<circle cx="174.345" cy="129.917" r="2.04962" transform="rotate(-180 174.345 129.917)" fill="white" fill-opacity="0.2"/>
<circle cx="217.383" cy="142.224" r="2.04962" transform="rotate(-180 217.383 142.224)" fill="white" fill-opacity="0.2"/>
<circle cx="137.654" cy="69.3937" r="2.04962" transform="rotate(-180 137.654 69.3937)" fill="white" fill-opacity="0.2"/>
<path d="M155.715 194.077C156.087 193.353 157.122 193.353 157.494 194.077L158.494 196.024C158.59 196.209 158.741 196.361 158.927 196.456L160.874 197.456C161.598 197.828 161.598 198.863 160.874 199.235L158.927 200.235C158.741 200.331 158.59 200.482 158.494 200.668L157.494 202.615C157.122 203.339 156.087 203.339 155.715 202.615L154.715 200.668C154.62 200.482 154.468 200.331 154.283 200.235L152.336 199.235C151.612 198.863 151.612 197.828 152.336 197.456L154.283 196.456C154.468 196.361 154.62 196.209 154.715 196.024L155.715 194.077Z" fill="white" fill-opacity="0.2"/>
<circle cx="68.7868" cy="147.345" r="2.04962" transform="rotate(-180 68.7868 147.345)" fill="white" fill-opacity="0.2"/>
<circle cx="59.5986" cy="148.498" r="1" transform="rotate(-180 59.5986 148.498)" fill="white" fill-opacity="0.2"/>
<circle cx="24.9993" cy="129.898" r="1" transform="rotate(-180 24.9993 129.898)" fill="white" fill-opacity="0.2"/>
<circle cx="46.9993" cy="26.3984" r="1" transform="rotate(-180 46.9993 26.3984)" fill="white" fill-opacity="0.2"/>
<circle cx="63.4993" cy="22.3984" r="1" transform="rotate(-180 63.4993 22.3984)" fill="white" fill-opacity="0.2"/>
<circle cx="81.9993" cy="15.8984" r="1" transform="rotate(-180 81.9993 15.8984)" fill="white" fill-opacity="0.2"/>
<circle cx="79.9993" cy="47.8984" r="1" transform="rotate(-180 79.9993 47.8984)" fill="white" fill-opacity="0.2"/>
<circle cx="93.3825" cy="107.378" r="2.04962" transform="rotate(-180 93.3825 107.378)" fill="white" fill-opacity="0.2"/>
<circle cx="101.582" cy="56.1418" r="2.04962" transform="rotate(-180 101.582 56.1418)" fill="white" fill-opacity="0.2"/>
<circle cx="121.049" cy="25.4484" r="2.04962" transform="rotate(-180 121.049 25.4484)" fill="white" fill-opacity="0.2"/>
<circle cx="26.049" cy="17.4484" r="2.04962" transform="rotate(-180 26.049 17.4484)" fill="white" fill-opacity="0.2"/>
<circle cx="29.8474" cy="96.0988" r="2.04962" transform="rotate(-180 29.8474 96.0988)" fill="white" fill-opacity="0.2"/>
<circle cx="170.292" cy="16.2188" r="2" transform="rotate(-180 170.292 16.2188)" fill="white" fill-opacity="0.2"/>
<path d="M374.715 40.0768C375.087 39.3529 376.122 39.3529 376.494 40.0768L377.494 42.0236C377.59 42.2093 377.741 42.3606 377.927 42.456L379.874 43.4562C380.598 43.8282 380.598 44.8632 379.874 45.2352L377.927 46.2354C377.741 46.3308 377.59 46.4821 377.494 46.6678L376.494 48.6146C376.122 49.3386 375.087 49.3386 374.715 48.6146L373.715 46.6678C373.62 46.4821 373.468 46.3308 373.283 46.2354L371.336 45.2352C370.612 44.8632 370.612 43.8282 371.336 43.4562L373.283 42.456C373.468 42.3606 373.62 42.2093 373.715 42.0236L374.715 40.0768Z" fill="white" fill-opacity="0.2"/>
<path d="M981.61 220.63C981.982 219.906 983.017 219.906 983.389 220.63L984.389 222.576C984.484 222.762 984.636 222.913 984.821 223.009L986.768 224.009C987.492 224.381 987.492 225.416 986.768 225.788L984.821 226.788C984.636 226.884 984.484 227.035 984.389 227.221L983.389 229.167C983.017 229.891 981.982 229.891 981.61 229.167L980.61 227.221C980.514 227.035 980.363 226.884 980.177 226.788L978.23 225.788C977.506 225.416 977.506 224.381 978.23 224.009L980.177 223.009C980.363 222.913 980.514 222.762 980.61 222.576L981.61 220.63Z" fill="white" fill-opacity="0.2"/>
<circle cx="51.4302" cy="63.3887" r="3" transform="rotate(-180 51.4302 63.3887)" fill="white" fill-opacity="0.2"/>
<circle cx="39.1978" cy="179.096" r="3" transform="rotate(-180 39.1978 179.096)" fill="white" fill-opacity="0.2"/>
<circle cx="114.698" cy="197.098" r="1.5" transform="rotate(-180 114.698 197.098)" fill="white" fill-opacity="0.2"/>
<circle cx="59.6431" cy="218.133" r="3" transform="rotate(-180 59.6431 218.133)" fill="white" fill-opacity="0.2"/>
<path d="M691.715 19.0749C692.087 18.3509 693.122 18.3509 693.494 19.0749L694.494 21.0216C694.59 21.2074 694.741 21.3586 694.927 21.4541L696.874 22.4543C697.598 22.8263 697.598 23.8612 696.874 24.2332L694.927 25.2334C694.741 25.3289 694.59 25.4801 694.494 25.6659L693.494 27.6126C693.122 28.3366 692.087 28.3366 691.715 27.6126L690.715 25.6659C690.62 25.4801 690.468 25.3289 690.283 25.2334L688.336 24.2332C687.612 23.8612 687.612 22.8263 688.336 22.4543L690.283 21.4541C690.468 21.3586 690.62 21.2074 690.715 21.0216L691.715 19.0749Z" fill="white" fill-opacity="0.2"/>
<circle r="2.04962" transform="matrix(-1 8.74228e-08 8.74228e-08 1 726.049 309.95)" fill="white" fill-opacity="0.2"/>
<circle r="1" transform="matrix(-1 8.74228e-08 8.74228e-08 1 757.499 278.398)" fill="white" fill-opacity="0.2"/>
<circle r="1.25" transform="matrix(-1 8.74228e-08 8.74228e-08 1 587.849 255.648)" fill="white" fill-opacity="0.2"/>
<circle r="2.04962" transform="matrix(-1 8.74228e-08 8.74228e-08 1 432.654 186.395)" fill="white" fill-opacity="0.2"/>
<path d="M681.715 132.077C682.087 131.353 683.122 131.353 683.494 132.077L684.494 134.024C684.59 134.209 684.741 134.361 684.927 134.456L686.874 135.456C687.598 135.828 687.598 136.863 686.874 137.235L684.927 138.235C684.741 138.331 684.59 138.482 684.494 138.668L683.494 140.615C683.122 141.339 682.087 141.339 681.715 140.615L680.715 138.668C680.62 138.482 680.468 138.331 680.283 138.235L678.336 137.235C677.612 136.863 677.612 135.828 678.336 135.456L680.283 134.456C680.468 134.361 680.62 134.209 680.715 134.024L681.715 132.077Z" fill="white" fill-opacity="0.2"/>
<circle r="1.5" transform="matrix(-1 8.74228e-08 8.74228e-08 1 146.304 145.846)" fill="white" fill-opacity="0.2"/>
<circle r="2.04962" transform="matrix(1 -8.74228e-08 -8.74228e-08 -1 30.0489 277.448)" fill="white" fill-opacity="0.2"/>
<circle r="2.04962" transform="matrix(1 -8.74228e-08 -8.74228e-08 -1 4.04962 319.45)" fill="white" fill-opacity="0.2"/>
<circle r="2.04962" transform="matrix(1 -8.74228e-08 -8.74228e-08 -1 72.0496 303.448)" fill="white" fill-opacity="0.2"/>
<circle r="1.5" transform="matrix(1 -8.74228e-08 -8.74228e-08 -1 113.5 315.998)" fill="white" fill-opacity="0.2"/>
<circle r="1.5" transform="matrix(1 -8.74228e-08 -8.74228e-08 -1 100.499 277.998)" fill="white" fill-opacity="0.2"/>
<circle r="1.5" transform="matrix(1 -8.74228e-08 -8.74228e-08 -1 100.499 238.4)" fill="white" fill-opacity="0.2"/>
<circle r="1.5" transform="matrix(1 -8.74228e-08 -8.74228e-08 -1 141.499 265.998)" fill="white" fill-opacity="0.2"/>
<circle r="1" transform="matrix(1 -8.74228e-08 -8.74228e-08 -1 173.999 239.5)" fill="white" fill-opacity="0.2"/>
<circle r="2.04962" transform="matrix(1 -8.74228e-08 -8.74228e-08 -1 191.049 277.448)" fill="white" fill-opacity="0.2"/>
<circle r="2.04962" transform="matrix(1 -8.74228e-08 -8.74228e-08 -1 210.049 265.448)" fill="white" fill-opacity="0.2"/>
<circle r="2.04962" transform="matrix(1 -8.74228e-08 -8.74228e-08 -1 206.05 312.45)" fill="white" fill-opacity="0.2"/>
<circle r="2.04962" transform="matrix(1 -8.74228e-08 -8.74228e-08 -1 266.049 302.45)" fill="white" fill-opacity="0.2"/>
<circle r="2.04962" transform="matrix(1 -8.74228e-08 -8.74228e-08 -1 294.049 261.448)" fill="white" fill-opacity="0.2"/>
<circle r="2.04962" transform="matrix(1 -8.74228e-08 -8.74228e-08 -1 256.049 247.448)" fill="white" fill-opacity="0.2"/>
<circle r="2.04962" transform="matrix(1 -8.74228e-08 -8.74228e-08 -1 321.049 318.45)" fill="white" fill-opacity="0.2"/>
<circle r="2.04962" transform="matrix(1 -8.74228e-08 -8.74228e-08 -1 349.049 326.45)" fill="white" fill-opacity="0.2"/>
<circle r="1.25" transform="matrix(1 -8.74228e-08 -8.74228e-08 -1 394.749 323.25)" fill="white" fill-opacity="0.2"/>
<circle r="2.04962" transform="matrix(1 -8.74228e-08 -8.74228e-08 -1 392.549 292.45)" fill="white" fill-opacity="0.2"/>
<circle r="2.04962" transform="matrix(1 -8.74228e-08 -8.74228e-08 -1 457.049 247.448)" fill="white" fill-opacity="0.2"/>
<circle r="2.04962" transform="matrix(1 -8.74228e-08 -8.74228e-08 -1 473.549 296.45)" fill="white" fill-opacity="0.2"/>
<circle r="2.04962" transform="matrix(1 -8.74228e-08 -8.74228e-08 -1 502.049 284.45)" fill="white" fill-opacity="0.2"/>
<circle r="2.04962" transform="matrix(1 -8.74228e-08 -8.74228e-08 -1 442.049 320.45)" fill="white" fill-opacity="0.2"/>
<circle r="2" transform="matrix(1 -8.74228e-08 -8.74228e-08 -1 350.999 256.5)" fill="white" fill-opacity="0.2"/>
<circle r="2" transform="matrix(1 -8.74228e-08 -8.74228e-08 -1 173 310.5)" fill="white" fill-opacity="0.2"/>
<circle r="3" transform="matrix(1 -8.74228e-08 -8.74228e-08 -1 560.499 317.096)" fill="white" fill-opacity="0.2"/>
<circle cx="938.895" cy="274.445" r="1" transform="rotate(-180 938.895 274.445)" fill="white" fill-opacity="0.2"/>
<circle cx="980.395" cy="263.947" r="1" transform="rotate(-180 980.395 263.947)" fill="white" fill-opacity="0.2"/>
<circle cx="890.409" cy="267.048" r="2.04962" transform="rotate(-180 890.409 267.048)" fill="white" fill-opacity="0.2"/>
<circle cx="848.599" cy="279.998" r="1" transform="rotate(-180 848.599 279.998)" fill="white" fill-opacity="0.2"/>
<circle cx="843.5" cy="312.998" r="1" transform="rotate(-180 843.5 312.998)" fill="white" fill-opacity="0.2"/>
<circle cx="849.5" cy="312.998" r="1" transform="rotate(-180 849.5 312.998)" fill="white" fill-opacity="0.2"/>
<circle cx="809.438" cy="275.249" r="2.04962" transform="rotate(-180 809.438 275.249)" fill="white" fill-opacity="0.2"/>
<circle cx="785.549" cy="316.948" r="2.04962" transform="rotate(-180 785.549 316.948)" fill="white" fill-opacity="0.2"/>
<circle r="2.04962" transform="matrix(1 -8.74228e-08 -8.74228e-08 -1 741.549 220.948)" fill="white" fill-opacity="0.2"/>
<circle r="1" transform="matrix(1 -8.74228e-08 -8.74228e-08 -1 782.499 175.998)" fill="white" fill-opacity="0.2"/>
<circle r="2.04962" transform="matrix(1 -8.74228e-08 -8.74228e-08 -1 824.549 208.948)" fill="white" fill-opacity="0.2"/>
<circle r="2.04962" transform="matrix(1 -8.74228e-08 -8.74228e-08 -1 813.549 39.9484)" fill="white" fill-opacity="0.2"/>
<circle r="2.04962" transform="matrix(1 -8.74228e-08 -8.74228e-08 -1 787.55 81.9484)" fill="white" fill-opacity="0.2"/>
<path d="M796.61 147.167C796.982 147.891 798.017 147.891 798.389 147.167L799.389 145.221C799.484 145.035 799.636 144.884 799.821 144.788L801.768 143.788C802.492 143.416 802.492 142.381 801.768 142.009L799.821 141.009C799.636 140.913 799.484 140.762 799.389 140.576L798.389 138.63C798.017 137.906 796.982 137.906 796.61 138.63L795.61 140.576C795.514 140.762 795.363 140.913 795.177 141.009L793.23 142.009C792.506 142.381 792.506 143.416 793.23 143.788L795.177 144.788C795.363 144.884 795.514 145.035 795.61 145.221L796.61 147.167Z" fill="white" fill-opacity="0.2"/>
<path d="M789.055 226.132C789.241 226.494 789.759 226.494 789.945 226.132L790.784 224.499C790.832 224.406 790.908 224.33 791 224.282L792.634 223.443C792.996 223.257 792.996 222.739 792.634 222.553L791 221.714C790.908 221.666 790.832 221.59 790.784 221.498L789.945 219.864C789.759 219.502 789.241 219.502 789.055 219.864L788.216 221.498C788.168 221.59 788.092 221.666 788 221.714L786.366 222.553C786.004 222.739 786.004 223.257 786.366 223.443L788 224.282C788.092 224.33 788.168 224.406 788.216 224.499L789.055 226.132Z" fill="white" fill-opacity="0.2"/>
<path d="M663.055 252.632C663.241 252.994 663.759 252.994 663.945 252.632L664.784 250.999C664.832 250.906 664.908 250.83 665 250.782L666.634 249.943C666.996 249.757 666.996 249.239 666.634 249.053L665 248.214C664.908 248.166 664.832 248.09 664.784 247.998L663.945 246.364C663.759 246.002 663.241 246.002 663.055 246.364L662.216 247.998C662.168 248.09 662.092 248.166 662 248.214L660.366 249.053C660.004 249.239 660.004 249.757 660.366 249.943L662 250.782C662.092 250.83 662.168 250.906 662.216 250.999L663.055 252.632Z" fill="white" fill-opacity="0.2"/>
<circle r="2.04962" transform="matrix(1 -8.74228e-08 -8.74228e-08 -1 855.55 65.9484)" fill="white" fill-opacity="0.2"/>
<circle r="2.04962" transform="matrix(1 -8.74228e-08 -8.74228e-08 -1 865.049 125.948)" fill="white" fill-opacity="0.2"/>
<circle r="1.5" transform="matrix(1 -8.74228e-08 -8.74228e-08 -1 865 182.945)" fill="white" fill-opacity="0.2"/>
<circle r="2.04962" transform="matrix(1 -8.74228e-08 -8.74228e-08 -1 921.549 174.948)" fill="white" fill-opacity="0.2"/>
<circle r="2.04962" transform="matrix(1 -8.74228e-08 -8.74228e-08 -1 906.549 147.948)" fill="white" fill-opacity="0.2"/>
<circle r="2.04962" transform="matrix(1 -8.74228e-08 -8.74228e-08 -1 897.55 77.9484)" fill="white" fill-opacity="0.2"/>
<circle r="2.04962" transform="matrix(1 -8.74228e-08 -8.74228e-08 -1 846.549 230.948)" fill="white" fill-opacity="0.2"/>
<circle r="2.04962" transform="matrix(1 -8.74228e-08 -8.74228e-08 -1 948.549 220.948)" fill="white" fill-opacity="0.2"/>
<circle r="2.04962" transform="matrix(1 -8.74228e-08 -8.74228e-08 -1 1003.05 322.048)" fill="white" fill-opacity="0.2"/>
<circle r="2.04962" transform="matrix(1 -8.74228e-08 -8.74228e-08 -1 942.05 302.048)" fill="white" fill-opacity="0.2"/>
<circle r="1" transform="matrix(1 -8.74228e-08 -8.74228e-08 -1 971.499 306.9)" fill="white" fill-opacity="0.2"/>
<circle r="2.04962" transform="matrix(1 -8.74228e-08 -8.74228e-08 -1 958.549 140.948)" fill="white" fill-opacity="0.2"/>
<circle r="2.04962" transform="matrix(1 -8.74228e-08 -8.74228e-08 -1 884.549 39.9484)" fill="white" fill-opacity="0.2"/>
<circle r="2.04962" transform="matrix(1 -8.74228e-08 -8.74228e-08 -1 925.549 27.9484)" fill="white" fill-opacity="0.2"/>
<circle r="1" transform="matrix(1 -8.74228e-08 -8.74228e-08 -1 850.499 21.998)" fill="white" fill-opacity="0.2"/>
<circle r="2.04962" transform="matrix(1 -8.74228e-08 -8.74228e-08 -1 974.549 39.9484)" fill="white" fill-opacity="0.2"/>
<circle r="2.04962" transform="matrix(1 -8.74228e-08 -8.74228e-08 -1 993.549 27.9484)" fill="white" fill-opacity="0.2"/>
<circle r="2.04962" transform="matrix(1 -8.74228e-08 -8.74228e-08 -1 983.549 111.948)" fill="white" fill-opacity="0.2"/>
<circle r="1" transform="matrix(1 -8.74228e-08 -8.74228e-08 -1 830.499 112.998)" fill="white" fill-opacity="0.2"/>
<path d="M990.611 166.267C990.983 166.991 992.017 166.991 992.389 166.267L993.39 164.32C993.485 164.134 993.636 163.983 993.822 163.888L995.769 162.888C996.493 162.516 996.493 161.481 995.769 161.109L993.822 160.108C993.636 160.013 993.485 159.862 993.39 159.676L992.389 157.729C992.017 157.005 990.983 157.005 990.611 157.729L989.61 159.676C989.515 159.862 989.364 160.013 989.178 160.108L987.231 161.109C986.507 161.481 986.507 162.516 987.231 162.888L989.178 163.888C989.364 163.983 989.515 164.134 989.61 164.32L990.611 166.267Z" fill="white" fill-opacity="0.2"/>
<path d="M892.61 312.169C892.982 312.893 894.017 312.893 894.389 312.169L895.389 310.223C895.484 310.037 895.636 309.886 895.821 309.79L897.768 308.79C898.492 308.418 898.492 307.383 897.768 307.011L895.821 306.011C895.636 305.915 895.484 305.764 895.389 305.578L894.389 303.632C894.017 302.908 892.982 302.908 892.61 303.632L891.61 305.578C891.514 305.764 891.363 305.915 891.177 306.011L889.23 307.011C888.506 307.383 888.506 308.418 889.23 308.79L891.177 309.79C891.363 309.886 891.514 310.037 891.61 310.223L892.61 312.169Z" fill="white" fill-opacity="0.2"/>
<circle r="2.04962" transform="matrix(1 -8.74228e-08 -8.74228e-08 -1 1011.55 206.948)" fill="white" fill-opacity="0.2"/>
<circle r="1" transform="matrix(1 -8.74228e-08 -8.74228e-08 -1 906.5 109.998)" fill="white" fill-opacity="0.2"/>
<circle r="2.04962" transform="matrix(1 -8.74228e-08 -8.74228e-08 -1 989.55 74.9484)" fill="white" fill-opacity="0.2"/>
<circle r="4.09924" transform="matrix(1 -8.74228e-08 -8.74228e-08 -1 958.599 70.8988)" fill="white" fill-opacity="0.2"/>
<circle r="2" transform="matrix(1 -8.74228e-08 -8.74228e-08 -1 901.499 206.998)" fill="white" fill-opacity="0.2"/>
<rect width="8.00155" height="71.8678" transform="matrix(-0.176411 0.984316 0.984237 0.176852 493.031 75.3945)" fill="#7156D9"/>
<rect width="3.55543" height="4.02324" transform="matrix(0.982798 0.184682 -0.184224 0.982884 482.906 228.74)" fill="#D9CFFF"/>
<path d="M446.199 185.027L439.971 191.199L425.988 153.719L433.215 151.016L446.199 185.027Z" fill="#7A92F0"/>
<rect width="5.9946" height="8.52519" transform="matrix(0.939468 -0.342636 0.341858 0.939751 585.551 150.07)" fill="#7156D9"/>
<rect width="7.99592" height="71.9779" transform="matrix(-0.76023 -0.649653 0.648687 -0.761055 432.727 143.031)" fill="#41D9D3"/>
<ellipse cx="428.987" cy="145.018" rx="11.9874" ry="12.0028" fill="#7156D9"/>
<rect width="7.99762" height="127.124" transform="matrix(-0.642565 0.766231 0.765417 0.643535 492.922 83.6328)" fill="#41D9D3"/>
<rect width="7.99592" height="71.9779" transform="matrix(-0.76023 -0.649653 0.648687 -0.761055 550.672 236.996)" fill="#41D9D3"/>
<rect width="7.99281" height="12.001" transform="matrix(0.938522 -0.34522 0.344439 0.938809 587.547 157.777)" fill="#E8CCFF"/>
<rect width="8.00067" height="137.645" transform="matrix(-0.342265 -0.939604 0.93932 -0.343042 465.418 225.758)" fill="#7A92F0"/>
<ellipse cx="594.538" cy="175.022" rx="11.9874" ry="12.0028" fill="#7156D9"/>
<rect width="9.98992" height="6.00114" transform="matrix(0.982798 0.184682 -0.184224 0.982884 474.051 226.035)" fill="#7156D9"/>
<ellipse cx="594.538" cy="175.023" rx="7.99159" ry="8.00187" fill="#FFA3E0"/>
<rect width="7.99191" height="125.184" transform="matrix(0.984293 0.17654 -0.176101 0.984372 478.73 88.877)" fill="#AD9BF6"/>
<path d="M443.898 203.042L450.186 197.028L458.575 219.516L451.315 222.231L443.898 203.042Z" fill="#E8CCFF"/>
<path d="M541.231 236.759L542.635 245.106L523.617 241.93L524.892 234.275L541.231 236.759Z" fill="#7156D9"/>
<path d="M464.271 231.021L463.269 222.617L482.113 226.701L480.473 234.286L464.271 231.021Z" fill="#CD8FFF"/>
<ellipse cx="483.655" cy="81.0009" rx="11.9874" ry="12.0028" fill="#CD8FFF"/>
<ellipse cx="540.597" cy="237.038" rx="11.9874" ry="12.0028" fill="#CD8FFF"/>
<ellipse cx="458.683" cy="224.034" rx="11.9874" ry="12.0028" fill="#7156D9"/>
<ellipse cx="483.658" cy="81.0034" rx="5.99369" ry="6.00141" fill="#F4E6FF"/>
<ellipse cx="540.595" cy="237.037" rx="5.99369" ry="6.00141" fill="#7156D9"/>
<ellipse cx="458.683" cy="224.034" rx="3.99579" ry="4.00094" fill="#3F20BA"/>
<mask id="mask0_3098_89458" style="mask-type:alpha" maskUnits="userSpaceOnUse" x="557" y="190" width="67" height="106">
<path d="M577.019 206.217C564.357 213.349 569.027 225.722 573.523 228.223L567.529 230.723C566.03 231.223 564.865 228.723 564.532 226.722C566.03 225.222 567.029 223.221 566.53 222.221C566.03 221.221 564.698 222.054 564.032 222.221C563.866 221.721 563.024 220.322 562.29 220.007C558.794 218.507 557.04 225.555 558.538 228.223C557.738 230.223 559.038 238.225 561.534 239.725C563.532 241.726 573.523 240.725 578.517 240.725C582.512 240.225 588.506 258.73 588.007 260.73C587.664 262.102 585.509 269.232 585.509 273.733C585.509 277.334 591.836 282.569 594.999 284.736C594 287.57 592.702 293.638 595.499 295.238C598.995 297.239 606.487 284.736 607.986 282.735C609.184 281.135 604.157 275.9 601.493 273.233C599.095 270.432 602.355 267.869 603.99 266.231C604.49 265.731 605.788 264.731 608.985 262.731C609.484 263.731 611.815 265.565 613.48 266.231C613.313 268.399 613.136 275.32 616.733 276.52C620.329 277.72 623.469 268.232 623.469 263.731C622.97 261.23 619.474 258.229 618.974 256.229C618.704 255.144 621.472 254.31 621.472 252.728C621.472 251.228 619.973 250.561 618.475 249.727C620.973 247.227 614.979 224.722 606.887 217.11C605.194 215.518 602.499 215.641 600.189 216.22C600.189 203.016 589.404 196.048 584.011 194.214C584.011 192.457 581.015 189.713 577.519 190.713C574.022 191.714 572.066 194.757 573.522 196.215C575.021 197.715 577.518 196.715 576.02 197.715C575.354 198.049 575.021 199.715 576.02 200.216C577.019 200.716 578.005 199.545 580.015 200.216C581.886 200.84 582.679 201.931 583.512 203.789C581.577 204.102 579.416 204.867 577.019 206.217Z" fill="white" stroke="white"/>
</mask>
<g mask="url(#mask0_3098_89458)">
<path d="M577.019 206.217C564.357 213.349 569.027 225.722 573.523 228.223L567.529 230.723C566.03 231.223 564.865 228.723 564.532 226.722C566.03 225.222 567.029 223.221 566.53 222.221C566.03 221.221 564.698 222.054 564.032 222.221C563.866 221.721 563.024 220.322 562.29 220.007C558.794 218.507 557.04 225.555 558.538 228.223C557.738 230.223 559.038 238.225 561.534 239.725C563.532 241.726 573.523 240.725 578.517 240.725C582.512 240.225 588.506 258.73 588.007 260.73C587.664 262.102 585.509 269.232 585.509 273.733C585.509 277.334 591.836 282.569 594.999 284.736C594 287.57 592.702 293.638 595.499 295.238C598.995 297.239 606.487 284.736 607.986 282.735C609.184 281.135 604.157 275.9 601.493 273.233C599.095 270.432 602.355 267.869 603.99 266.231C604.49 265.731 605.788 264.731 608.985 262.731C609.484 263.731 611.815 265.565 613.48 266.231C613.313 268.399 613.136 275.32 616.733 276.52C620.329 277.72 623.469 268.232 623.469 263.731C622.97 261.23 619.474 258.229 618.974 256.229C618.704 255.144 621.472 254.31 621.472 252.728C621.472 251.228 619.973 250.561 618.475 249.727C620.973 247.227 614.979 224.722 606.887 217.11C605.194 215.518 602.499 215.641 600.189 216.22C600.189 203.016 589.404 196.048 584.011 194.214C584.011 192.457 581.015 189.713 577.519 190.713C574.022 191.714 572.066 194.757 573.522 196.215C575.021 197.715 577.518 196.715 576.02 197.715C575.354 198.049 575.021 199.715 576.02 200.216C577.019 200.716 578.005 199.545 580.015 200.216C581.886 200.84 582.679 201.931 583.512 203.789C581.577 204.102 579.416 204.867 577.019 206.217Z" fill="#E6EBFF" stroke="#E6EBFF"/>
<path d="M616.939 283.521C616.939 291.255 607.681 299.525 599.957 299.525C592.233 299.525 588.969 291.255 588.969 283.521C588.969 279.058 591.966 284.521 598.459 278.02C604.952 271.518 599.687 269.518 602.954 269.518C610.678 269.518 616.939 275.787 616.939 283.521Z" fill="#B0BEF7"/>
<ellipse cx="620.935" cy="267.519" rx="13.9853" ry="14.0033" fill="#B0BEF7"/>
<path d="M588.966 219.506C588.966 225.03 583.771 230.009 577.978 230.009C572.185 230.009 567.988 225.03 567.988 219.506C567.988 213.982 572.684 209.504 578.477 209.504C584.27 209.504 588.966 213.982 588.966 219.506Z" fill="white" fill-opacity="0.92"/>
<path d="M615.941 248.392C622.93 248.392 622.597 239.177 623.43 238.01C620.102 219.44 607.446 214.004 600.454 215.504C591.463 190.499 569.986 209.503 567.992 213.884C566.117 218.006 577.482 215.385 581.978 215.385C586.473 215.385 586.473 219.886 585.973 223.387C585.474 226.887 582.972 229.008 571.984 228.007C572.483 229.008 578.477 231.508 582.473 230.008C579.476 232.508 589.47 253.894 592.467 257.895C599.959 259.395 602.456 258.395 601.957 250.393C601.457 242.391 596.462 234.389 584.974 229.888C591.468 229.888 601.456 224.387 605.952 218.385C602.455 232.889 614.942 248.392 615.941 248.392Z" fill="#B0BEF7"/>
<path d="M586.469 262.516C586.635 261.349 587.368 258.916 588.966 258.516" stroke="#7A92F0" stroke-linecap="round"/>
</g>
<path d="M624.427 252.516C623.428 250.016 620.432 250.016 618.933 249.516L611.497 255.017L611.335 256.517L610.498 255.517C608.334 256.851 606.84 258.018 603.843 259.018C602.996 259.301 600.68 259.685 599.847 259.518C599.348 260.518 597.257 263.719 598.455 264.519C607.945 268.52 612.497 261.518 613.496 258.518C617.491 259.518 625.013 253.985 624.427 252.516Z" fill="#7A92F0"/>
<path d="M413.16 96.0038C420.353 100.005 421.152 105.314 421.152 107.506C421.152 109.507 418.652 117.997 409 121.497C401.337 122.484 407.5 123.497 408.5 128.997C408.5 128.997 408.901 132.398 410.5 133.997C413.485 136.982 415.658 138.514 416.657 138.014C417.656 137.514 421.153 136.513 422.151 137.514C423.15 138.514 419.654 139.514 420.154 141.014C420.653 142.515 424.649 143.515 424.649 145.015C424.649 146.516 422.651 148.016 418.156 148.516C413.332 149.053 412.162 145.349 411.163 143.515C409.565 143.115 400.674 140.014 397.178 136.513C395.679 138.514 393.182 141.014 393.182 144.015C393.182 147.016 396.058 152.778 393.182 159.019C390.185 165.52 383.692 172.022 381.694 173.022C382.194 175.022 383.193 181.524 380.196 183.524C377.199 185.525 370.706 172.522 372.204 169.521C373.703 166.52 380.695 161.019 380.196 154.017C376.699 161.019 360.716 161.019 358.718 160.519C357.22 162.519 351.724 169.021 349.726 167.02C347.728 165.02 350.225 152.517 352.723 151.017C355.22 149.516 365.711 150.016 368.706 146.016C369.707 144.679 368.706 142.515 368.707 138.514C365.709 140.514 348.729 132.512 361.215 128.511C356.02 126.511 365.544 113.508 371.205 107.006C377.2 101.005 383.192 100.505 390.684 103.005C394.68 93.8033 404.002 90.9095 413.16 96.0038Z" fill="#E6EBFF" stroke="#E6EBFF"/>
<mask id="mask1_3098_89458" style="mask-type:alpha" maskUnits="userSpaceOnUse" x="348" y="93" width="78" height="92">
<path d="M413.16 96.0038C420.353 100.005 421.152 105.314 421.152 107.506C421.152 109.507 421.652 118.509 411.163 123.01C409.964 124.611 414.326 128.345 416.657 130.012C415.658 130.345 413.261 131.412 411.663 133.012C409.665 135.013 415.658 138.514 416.657 138.014C417.656 137.514 421.153 136.513 422.151 137.514C423.15 138.514 419.654 139.514 420.154 141.014C420.653 142.515 424.649 143.515 424.649 145.015C424.649 146.516 422.651 148.016 418.156 148.516C413.332 149.053 412.162 145.349 411.163 143.515C409.565 143.115 400.674 140.014 397.178 136.513C395.679 138.514 393.182 141.014 393.182 144.015C393.182 147.016 396.058 152.778 393.182 159.019C390.185 165.52 383.692 172.022 381.694 173.022C382.194 175.022 383.193 181.524 380.196 183.524C377.199 185.525 370.706 172.522 372.204 169.521C373.703 166.52 380.695 161.019 380.196 154.017C376.699 161.019 360.716 161.019 358.718 160.519C357.22 162.519 351.724 169.021 349.726 167.02C347.728 165.02 350.225 152.517 352.723 151.017C355.22 149.516 365.711 150.016 368.706 146.016C369.707 144.679 368.706 142.515 368.707 138.514C365.709 140.514 348.729 132.512 361.215 128.511C356.02 126.511 365.544 113.508 371.205 107.006C377.2 101.005 383.192 100.505 390.684 103.005C394.68 93.8033 404.002 90.9095 413.16 96.0038Z" fill="#3D4B6A" stroke="#2D344F"/>
</mask>
<g mask="url(#mask1_3098_89458)">
<path d="M408.5 123.076C396.113 123.076 390.527 113.813 389.029 109.479C388.862 108.979 386.461 109.01 383.465 110.511C377.147 113.674 367.481 129.515 367.481 131.015C367.481 132.216 369.334 132.661 370 132.994C370 133.328 369.4 134.094 369 134.494C363.805 133.294 358.157 128.348 356.991 125.514C355.993 122.513 365.983 107.979 371.976 101.977C376.771 97.176 386.032 100.477 389.528 101.977C388.862 100.31 389.828 96.1758 399.018 92.9751C411.405 90.5745 419.759 98.5077 421.424 102.509C423.592 107.719 420.887 123.076 408.5 123.076Z" fill="#B0BEF7"/>
<path d="M369.48 134.019C367.482 134.819 361.988 130.518 359.49 128.018L353.996 130.018L361.488 141.521L367.981 139.52C369.313 139.02 365.983 139.02 369.48 134.019Z" fill="#7A92F0"/>
<path d="M400.41 140.173C398.807 139.498 388.185 130.021 387.461 125.518" stroke="#7A92F0" stroke-linecap="round"/>
<path d="M377.969 158.525C378.801 158.025 382.464 153.524 381.465 150.023" stroke="#7A92F0" stroke-linecap="round"/>
<rect width="11.9929" height="11.9973" rx="1" transform="matrix(0.800238 0.599682 -0.598694 0.800978 365.172 102.512)" fill="#7A92F0"/>
<path d="M405.901 100.781C409.786 101.842 414.392 108.783 423.882 108.783C423.383 112.284 422.383 116.785 419.886 119.286C412.893 121.786 401.905 115.285 398.908 109.784C395.912 104.282 400.407 99.2811 405.901 100.781Z" fill="white" fill-opacity="0.92"/>
<path d="M377.764 161.257C380.499 164.37 386.875 167.444 389.839 167.772C387.498 169.726 383.018 174.267 383.828 176.796C384.639 179.325 383.281 183.671 382.501 185.527C376.965 192.983 369.775 173.842 368.953 171.716C367.702 168.482 373.65 164.006 377.764 161.257Z" fill="#B0BEF7"/>
<path d="M364.035 148.361C364.205 152.68 367.276 159.51 369.409 161.832C366.308 161.711 359.862 162.101 358.884 164.625C357.907 167.149 354.053 169.567 352.248 170.46C343.103 172.369 349.67 152.53 350.38 150.31C351.461 146.934 359.026 147.619 364.035 148.361Z" fill="#B0BEF7"/>
</g>
<path d="M608.53 72.0377L598.482 72.8116C597.577 72.8813 597.225 74.0221 597.933 74.5892L600.869 76.9408C600.924 76.9848 600.984 77.0229 601.047 77.0545L604.948 79.0075L606.741 80.0851C607.15 80.3309 607.676 80.2534 607.997 79.9001L611.748 75.7679C612.127 75.3509 612.087 74.7037 611.659 74.3369L609.258 72.2759C609.057 72.103 608.795 72.0173 608.53 72.0377Z" fill="#B0BEF7"/>
<path d="M566.823 75.8095C547.343 88.3125 558.83 106.317 565.324 105.316C560.829 101.816 559.349 91.9198 566.323 87.8123C574.814 82.8111 579.975 88.1457 581.807 90.3129C586.302 91.9799 595.193 95.4141 594.793 95.8142C594.394 96.2143 600.62 105.15 603.784 109.817C607.28 116.319 613.177 114.538 614.273 114.319C616.77 113.818 624.262 108.817 629.756 108.317C630.922 108.984 634.052 110.218 637.248 109.817C642.843 109.017 635.584 102.149 631.255 98.8149C634.751 98.8149 637.58 98.3809 640.911 96.8475C644.241 95.314 646.213 101.826 651.066 99.8813C654.728 98.414 649.078 87.954 643.742 86.8121C641.259 86.2808 638.628 87.0183 636.25 87.8123C631.307 89.4619 619.434 84.9783 613.773 81.8109C611.775 80.8107 609.777 80.3105 606.781 80.3105C604.98 80.3105 598.789 74.8093 599.288 74.3091C599.788 73.809 606.781 73.3089 609.777 72.8088C612.175 72.4087 614.606 74.976 615.272 76.3096C614.772 77.3098 614.163 81.5987 615.771 80.3105C618.268 78.3101 620.266 82.8111 622.764 80.8107C627.259 76.8097 619.267 71.3084 617.769 70.8083C614.273 64.3068 607.28 63.64 602.785 63.8067L594.793 58.3054C594.239 58.1944 591.63 59.1389 590.298 59.8058C587.967 57.6386 581.807 53.3042 572.816 57.8053C561.328 64.3068 565.824 72.8088 566.823 75.8095Z" fill="#E6EBFF" stroke="#E6EBFF"/>
<path d="M566.823 75.8095C547.343 88.3125 558.83 106.317 565.324 105.316C560.829 101.816 559.349 91.9198 566.323 87.8123C574.814 82.8111 579.975 88.1457 581.807 90.3129C586.302 91.9799 595.193 95.4141 594.793 95.8142C594.394 96.2143 600.62 105.15 603.784 109.817C607.28 116.319 613.177 114.538 614.273 114.319C616.77 113.818 624.262 108.817 629.756 108.317C630.922 108.984 634.052 110.218 637.248 109.817C642.843 109.017 635.584 102.149 631.255 98.8149C634.751 98.8149 637.58 98.3809 640.911 96.8475C644.241 95.314 646.213 101.826 651.066 99.8813C654.728 98.414 649.078 87.954 643.742 86.8121C641.259 86.2808 638.628 87.0183 636.25 87.8123C631.307 89.4619 619.434 84.9783 613.773 81.8109C611.775 80.8107 609.777 80.3105 606.781 80.3105C604.98 80.3105 598.789 74.8093 599.288 74.3091C599.788 73.809 606.781 73.3089 609.777 72.8088C612.175 72.4087 614.606 74.976 615.272 76.3096C614.772 77.3098 614.163 81.5987 615.771 80.3105C618.268 78.3101 620.266 82.8111 622.764 80.8107C627.259 76.8097 619.267 71.3084 617.769 70.8083C614.273 64.3068 607.28 63.64 602.785 63.8067L594.793 58.3054C594.239 58.1944 591.63 59.1389 590.298 59.8058C587.967 57.6386 581.807 53.3042 572.816 57.8053C561.328 64.3068 565.824 72.8088 566.823 75.8095Z" fill="#E6EBFF" stroke="#E6EBFF"/>
<ellipse cx="592.961" cy="77.3426" rx="3.99579" ry="3.50082" fill="#B0BEF7"/>
<mask id="mask2_3098_89458" style="mask-type:alpha" maskUnits="userSpaceOnUse" x="555" y="55" width="98" height="61">
<path d="M566.823 75.8076C547.343 88.3105 558.83 106.315 565.324 105.314C560.829 101.814 559.349 91.9178 566.323 87.8103C574.814 82.8092 579.975 88.1438 581.807 90.3109C586.302 91.978 595.193 95.4121 594.793 95.8122C594.394 96.2123 600.62 105.148 603.784 109.815C607.28 116.317 613.177 114.536 614.273 114.317C616.77 113.816 624.262 108.815 629.756 108.315C630.922 108.982 634.052 110.216 637.248 109.815C642.843 109.015 635.584 102.147 631.255 98.8129C634.751 98.8129 637.58 98.379 640.911 96.8455C644.241 95.3121 646.213 101.824 651.066 99.8793C654.728 98.4121 649.078 87.9521 643.742 86.8101C641.259 86.2788 638.628 87.0164 636.25 87.8103C631.307 89.46 619.434 84.9764 613.773 81.8089C611.775 80.8087 609.777 80.3086 606.781 80.3086C604.98 80.3086 598.789 74.8073 599.288 74.3072C599.788 73.8071 606.781 73.307 609.777 72.8068C612.175 72.4067 614.606 74.974 615.272 76.3076C614.772 77.3079 614.163 81.5967 615.771 80.3086C618.268 78.3081 620.266 82.8092 622.764 80.8087C627.259 76.8078 619.267 71.3065 617.769 70.8064C614.273 64.3048 607.28 63.638 602.785 63.8047L594.793 58.3034C594.239 58.1925 591.63 59.137 590.298 59.8038C587.967 57.6367 581.807 53.3023 572.816 57.8034C561.328 64.3049 565.824 72.8069 566.823 75.8076Z" fill="#3D4B6A" stroke="#2D344F"/>
</mask>
<g mask="url(#mask2_3098_89458)">
<path d="M652.398 90.3448C654.754 96.2412 654.009 99.6712 651.4 100.847C648.477 102.165 643.286 100.847 638.913 100.847C630.638 100.847 637.414 100.079 637.414 92.3453C637.414 84.6115 625.142 77.3418 633.418 77.3418C641.693 77.3418 652.398 82.611 652.398 90.3448Z" fill="#B0BEF7"/>
<path d="M619.434 102.347C621.431 105.148 622.43 110.713 621.931 113.047C624.262 111.713 629.423 109.346 631.421 110.546C633.419 111.747 637.581 111.713 639.413 111.547C647.404 109.046 632.563 99.1597 630.922 98.0435C628.424 96.3457 622.93 99.8465 619.434 102.347Z" fill="#B0BEF7"/>
<path d="M594.461 57.5L587.469 60.0006C588.135 60.8341 593.063 62.0011 595.46 64.0015C596.259 62.8012 600.955 63.0013 602.952 63.5014L599.456 59.5005L594.461 57.5Z" fill="#B0BEF7"/>
</g>
<ellipse rx="14.9902" ry="11.998" transform="matrix(0.829081 -0.559128 0.55814 0.829747 576.558 64.3375)" fill="#B0BEF7"/>
<path d="M569.426 65.8825C561.434 66.3826 563.932 72.3839 566.429 74.3845C568.927 76.385 579.415 78.3854 585.408 70.3836C591.402 62.3817 585.374 58.3858 581.913 58.8809C578.416 59.381 577.417 65.3824 569.426 65.8825Z" fill="white" fill-opacity="0.92"/>
<path d="M618.929 102.392C617.231 102.414 613.257 101.663 610.941 98.4766" stroke="#7A92F0" stroke-linecap="round"/>
<path d="M622.928 80.7103C627.423 76.7094 619.431 71.2081 617.933 70.708C616.781 68.5665 614.634 67.0581 612.938 66.0039L609.941 72.7084C612.339 72.3084 614.77 74.8756 615.436 76.2093C614.936 77.2095 614.327 81.4983 615.935 80.2102C618.432 78.2097 620.43 82.7108 622.928 80.7103Z" fill="#E6EBFF" stroke="#E6EBFF"/>
<rect x="0.151339" y="0.690654" width="0.999323" height="6.99956" transform="matrix(0.841757 0.539857 -0.538873 0.842387 589.185 114.045)" stroke="#FFA3E0" stroke-width="0.999323"/>
<rect width="5.99584" height="2.99892" transform="matrix(0.811415 0.584471 -0.583481 0.812127 586.469 114.928)" fill="#F25CC1"/>
<rect width="7.9953" height="79.9817" transform="matrix(-0.799228 -0.601028 0.60004 -0.79997 591.359 119.594)" fill="#7156D9"/>
<path d="M622.201 80.7103C628.234 76.499 619.233 70.9991 617.734 70.499C616.583 68.3576 613.908 67.0581 612.212 66.0039L609.215 72.7084C611.612 72.3084 614.043 74.8756 614.709 76.2093C614.21 77.2095 613.6 81.4983 615.209 80.2102C617.706 78.2097 619.704 82.7108 622.201 80.7103Z" fill="#E6EBFF" stroke="#E6EBFF"/>
<ellipse cx="572.71" cy="96.0145" rx="11.9874" ry="12.0028" fill="#FFA3E0"/>
<ellipse cx="572.709" cy="96.0131" rx="5.99369" ry="6.00141" fill="#7A92F0"/>
</svg>
