<?xml version="1.0" encoding="utf-8"?>
<!-- Generator: Adobe Illustrator 27.6.0, SVG Export Plug-In . SVG Version: 6.00 Build 0)  -->
<svg version="1.1" id="Calque_11_xA0_Image_1_" xmlns="http://www.w3.org/2000/svg" xmlns:xlink="http://www.w3.org/1999/xlink"
	 x="0px" y="0px" viewBox="0 0 1302.5 909.8" style="enable-background:new 0 0 1302.5 909.8;" xml:space="preserve">
<style type="text/css">
	.st0{fill:#FFF0E6;}
</style>
<path class="st0" d="M787,492.3c3,1.6,3.2,2.2,1.9,5c-5,10.4-8.1,21.4-11.2,32.4c-3.9,13.8-8.3,27.4-14,40.6
	c-3.7,8.6-7.6,17.1-11.6,25.5c-2.6,5.4-5.5,10.6-8.9,15.5c-0.3,0.4-0.7,0.9-0.7,1.8c2.2,0.3,4.4,0,6.6-0.2
	c5.1-0.4,10.2-0.3,15.3-0.4c5.7-0.1,11.4-0.4,17.1-1.5c2.8-0.6,5.4-1.5,6.8-4.4c1.3-2.7,5.7-2,6.9,0.2c2.2,4.1,3.3,8.4,2.6,13.1
	c0,0.3-0.1,0.6-0.2,0.8c-2.5,2.6-4.1,6.2-8.4,6.9c-9.2,1.6-18.3,3.8-27.7,4.3c-6.2,0.3-12.5,0.3-18.8-0.4c-1.5-0.2-3-0.5-4.4-1.3
	c0.3,31.1,2.6,62,2.4,93.3c-1.7,1.1-3.9,1.2-5.9,1.9c-1,0.4-2.2,0.4-3.1,0.8c-5.2,2.3-10.7,2.5-16.3,2.1c-4.6-0.4-9.3-0.4-13.8-1.2
	s-8.8-2.2-11.9-5.9c-3.2-0.6-6.2,0.2-9.2,0.7c-5.5,0.9-10.9,1.8-16.5,1.2c-5.8-0.6-11.6-0.7-17.4-0.4c-8,0.4-15.9,1.1-23.9,1.9
	c-6.8,0.8-13.5,1.5-20.3,1.9c-4.6,0.3-9.2,0.7-13.8,1.2c-4,0.4-8,0.3-12,0.1c-4.1-0.2-8.2-0.5-12.2,0.2c-1.1,0.2-2.3,0.4-3.2-0.3
	c-1.4-1.2-3.1-1.4-4.6-1.4c-0.7-0.6-0.6-1.2-0.7-1.9c-0.7-9.8-1.3-19.6-1.9-29.4c-0.5-8.5-1.5-17-2.4-25.5
	c-0.7-6.4-1.2-12.8-1.4-19.3c-0.1-4.7-0.5-9.4-0.8-13.9c-0.5-0.5-0.9-0.5-1.2-0.5c-4.4-0.1-6.9-2.7-6.7-7.1c0-0.8,0.3-1.6,0.3-2.4
	c0.1-0.7,0.3-1.5,0.1-2.2c-1.8-6.2-2.5-12.6-3.8-18.9c-1.8-9.1-4.2-18-6.6-27c-2.6-10-4.1-20.3-5.8-30.5c-1-5.9-2-11.8-3-17.7
	c-0.2-1.2-0.4-2.3,0.4-3.6c-14.5-11.8-24.6-26.8-32.1-43.6c-2.4,0.2-3.4,1.8-4.2,3.6c-2.2,4.9-4.5,9.7-7.2,14.4
	c-1.1,1.9-2.6,3.1-4.8,3.7c-6.8,1.7-13.7,2.8-20.6,4c-9.7,1.6-18.6,5.4-27,10.5c-13,7.9-24.6,17.4-34.7,28.7
	c-3.8,4.3-7.2,8.8-10.6,13.5c-4.2,5.8-8.3,11.6-12.6,17.4c-4.1,5.5-6.5,11.7-8.9,18c-2,5.1-3.8,10.2-5.5,15.4
	c-2.6,7.9-5.4,15.8-9.1,23.3c-4.4,8.9-7.9,18.1-9.6,28c-0.4,2.5-1.3,5-0.1,7.7c0.4,1,0.1,2.3,0,3.5c-0.6,7.5-1.4,15-1.8,22.5
	c-0.3,5.6-0.1,11.3,0.7,16.8c0.7,4.5,0.7,9.1,0.7,13.6c0,1.4-0.4,2.7-1.6,3.6c-1.2,1-1.8,2.4-2.9,3.6c-3.1-3.4-3.2-7.2-2.8-11.3
	c0.5-5.6,1.7-11.1,1.8-16.8c0-2.4-0.3-4.7-0.5-7c-0.3-5,0.2-10,0.8-14.9c0.5-3.8,0.2-7.6,1-11.4c1.4-7.3,1.3-14.8,3.3-22
	c1-3.5,1.6-7.1,2.1-10.7c0.5-3.9,2-7.6,3.5-11.1c3.3-8.1,6.1-16.4,7.7-24.9c1.9-10.2,6.7-18.7,13.9-26c4.6-4.7,8.6-9.9,12.4-15.1
	c0.7-1,1.4-2.1,2-3c-1.4-7.6-4.7-14.3-7.7-21.1c-2.7-6.2-4-12.6-5.1-19.1c-2.2-13.2-0.7-26.3,1.8-39.2c3.1-15.9,7.8-31.3,11.9-47
	c2.5-9.3,7-17.4,13.2-24.7c0.6-0.8,1.2-1.6,1.9-2.3c2.8-2.5,3.6-5.7,3.2-9.3c-0.5-4.4,0.1-8.7,0.1-13.1c0-10.9-0.3-21.8-0.7-32.7
	c-0.3-7.2-1.2-14.3-1.5-21.5c-0.2-5.1-0.1-10.2-0.4-15.3c-0.3-7-1-14-1.4-20.9c-0.5-7.2-0.5-14.3-0.5-21.5c0-10.1,0.1-20.2,0.1-30.3
	c0-3.1,0.1-6.1,0.8-9.2c1.3-5.6,4.1-10.1,8.8-13.3c7.3-5,11.9-12.2,15.9-19.7c3.7-6.9,7-14,11.8-20.2c0.7-0.9,1.3-1.7,2-2.6
	c1.6-2,3.6-3.2,6.3-3.5c6.1-0.5,11.9-2.3,17.7-4.2c6.1-2,12.3-3.1,18.5-2.4c4.2-4,8.4-7.6,11.9-11.9c1.3-1.5,3.2-2.1,5.1-2.2
	c1.8-0.1,3.6,0.2,5.4,0.4c6.2,0.6,12.5,1.1,18.7,1.6c2.2,0.2,4.3-0.5,6.4-1.2c12.1-4,24.2-7.6,36.6-10.7c13-3.3,26.1-6.1,39.4-8
	c8.4-1.2,17-1.7,25.5-2.4c12.3-1,24.7-1.4,37-2c4.8-0.2,9.6-0.2,14.4-0.3c12.4-0.2,24.7-0.1,37.1,0.2c10.4,0.3,20.9,0.7,31.3,1.6
	c11.8,1,23.5,1.9,35.2,3.7c3,0.5,5.9,1,8.8,1.7c3.2,0.7,5.9,2.3,7.7,5.1c2.5,4,5.8,7.5,7.8,11.8c0.9,1.9,3.3,3,2.9,5.5
	c4.6,2.4,9,4.9,13.6,6.8c8.2,3.4,15.3,8.2,21.3,14.8c0.5,0.6,1.1,1.3,1.8,1.7c2.4,1.6,3,4,2.9,6.7c-0.5,9.1-0.6,18.2-0.6,27.3
	c-0.1,8.9-0.4,17.8-0.3,26.7c0.1,7.7,0.4,15.4,1.4,23.1c0.2,1.4,0.6,2.6,1.5,3.7c2.3,3,4.3,6.3,6.4,9.5c2,2.9,3.2,6,3.7,9.6
	c1.2,9.3,2,18.6,2.6,27.9c0.6,9,1.3,17.9,1.9,26.9c0.2,3.5,0.2,7.1,0.2,10.6c-0.1,17.5-0.1,34.9,0.2,52.4c0.2,9.5,0.6,19.1,0.8,28.6
	c0.1,6.7,0,13.5,0,20.2c0,2.5-1.1,4-3.6,4.8c-1.3,0.4-2.6,0.7-4,0.9c-1,0.2-1.9,0.4-2.8,1.2c0.8,1,1.8,1.3,2.8,1.6
	c11.3,3.3,20.5,10.3,29.7,17.4c8.7,6.7,16.4,14.3,24.8,21.4c7.6,6.5,14.8,13.4,22.1,20.2c4.9,4.5,9.2,9.5,12.5,15.4
	c4.5,7.9,8,16.3,11.5,24.7c5.1,12.2,8.8,24.8,12.1,37.5c2.3,8.9,5.5,17.5,9.1,25.9c2.5,5.8,6,11,9.1,16.4c4,6.8,7.3,14,10.2,21.4
	c2.5,6.6,5.6,13,9.1,19.2c2.9,5,5,10.3,6.8,15.7c1.2,3.8,1.7,7.6,0.9,11.6c-0.4,1.9,0.1,3.8,0.4,5.7c0.3,2.1,0.4,4.3,0.7,6.8
	c-2.5,0.4-4.8,0.2-7.1,0.1c-0.4-1.6-0.2-2.9-0.1-4.3c0.6-6.7-0.7-13.2-2.3-19.6c-0.6-2.3-1.5-4.5-2.7-6.5c-5-8.4-9.3-17-13-26
	c-3-7.4-6.5-14.6-10.1-21.7c-7.4-14.7-13.1-30.1-17.8-45.9c-2.5-8.3-5.8-16.2-9.9-23.8c-5.3-9.7-9.6-19.8-12.5-30.4
	c-1.7-6.4-4.9-11.9-9.4-16.6c-1.9-2-3.8-3.9-6.2-5.9c-0.4,3.3-2.6,4.3-5,5.3c-5,2-9.9,4-15,5.6c-1.4,0.4-2.7,1-4,1.8
	c-4.8,3.1-9.6,6.2-14.4,9.3c-1.5,1-3.1,2-4.5,3c-1.3,0.9-2.6,1.9-3,3.7c-0.3,1.2-1.4,2.1-2.3,3c-4.6,4.8-9.6,9.2-13.7,14.4
	c-3,3.8-6.4,7.2-8.8,11.4c-2.9,5-5.7,10.1-8.4,15.3c-0.7,1.3-1.2,2.8-1.5,4.4c-0.2,1.4-0.8,2.8-1.4,4.1c-1,2.1-2.3,3.7-5,3.7
	c-1.5,4.2-2.6,8.5-3.2,12.9c-1,7-1.7,14.1-4.5,20.7c-0.4,0.9-0.6,1.9-1.3,2.7s-1.5,1.3-2.6,0.9c-1.1-0.4-1.4-1.4-1.2-2.5
	c0.4-2.1,0.7-4.3,1.3-6.4c2-6.4,2.9-12.9,4-19.4c1.3-7.2,4.3-13.8,8.3-19.9c1.8-2.7,3.8-5.3,4.9-8.4c0.6-1.7,1.7-3.1,2.6-4.6
	c-0.6-0.6-1.1-0.4-1.5-0.3c-4.6,1.4-9.3,1.2-14,2c-2.2,0.4-4.1-0.5-5.7-2c-2.8-2.6-5.3-5.4-7.5-8.6c-3.2-4.6-6.3-9.3-10.3-13.4
	c-3.4-3.5-7.3-6.2-11.9-7.9c-3.3-1.2-6.6-2.4-10-3.2c-0.7,0.5-0.9,1.1-1,1.7c-2.4,10.9-3.1,21.9-2.5,33c0.2,4.3-0.2,8.7-0.4,13.1
	c-0.1,1.3-0.4,2.5-1.4,3.5c-1.4,1.4-3.1,1.1-3.9-0.8c-0.2-0.6-0.3-1.2-0.4-1.9c-0.6-10-0.6-19.9,0.2-29.9c0.6-7.5,2.3-14.7,3.9-21.9
	c1.4-6.2,3.9-12.1,6.4-17.9c2.5-5.6,4.3-11.4,7.3-16.7c3.5-6.2,7.5-12,12.3-17.2c4.8-5.3,8.9-11.2,13.3-16.9
	c3.6-4.7,7.6-9,11.5-13.5c1.8-2.1,3.8-3.9,6.3-5c0.9-0.3,1.3,1.1,2.2,0.6c0.8-0.4,0-1.2,0.7-1.9c2.2-0.2,4.7-0.4,7-0.6
	c0.9,0.8,0.4,1.8,1.1,2.7c3.2-1.9,6.3-4.1,9.8-5.3c0.5-3.6-0.1-7.1-0.2-10.5c-0.1-7.8-0.5-15.6-0.8-23.4
	c-0.6-20.2-0.8-40.3-0.4-60.5c0.1-7.7,0.2-15.5-0.1-23.2c-0.4-8.4-1.1-16.8-1.9-25.3c-0.8-8-2-15.9-2.4-23.8c-0.1-2.6-0.9-5-2.4-7.1
	c-1.8-2.6-3.5-5.3-5.4-7.8c-1.7-2.2-2.6-4.6-2.7-7.5c-0.6-12.4-1.1-24.9-0.7-37.3c0.4-9.7,0.4-19.4,0.2-29.2
	c-0.1-3.3-0.2-6.5-0.2-9.8c0-1.8-0.7-3.1-2-4.3c-6.4-6-13.3-11.3-21.2-15.1c-4.2-2-8.2-4.4-12.1-6.8c-0.9-0.6-1.9-1.1-2.9-1.5
	c-2.5-1-3.7-3.4-2.9-6.1c0.2-0.7,0.1-1.2-0.1-1.8c-0.4-1.3-1-2.5-1.8-3.6c-0.9-1.1-1.8-2.3-2.8-3.4c-3.4-3.8-2.3-3.8-7.5-3.7
	c-2.2,0-4.3-0.5-6.5-0.8c-10-1.5-20-2.4-30.1-3.2c-5.8-0.5-11.6-0.9-17.4-1.5c-3.6-0.3-7.1-0.2-10.6,0.6c-1-0.5-1.7-1.3-3-1.4
	c-15.3-0.5-30.7-1.4-46-1.3c-14.4,0.1-28.7,0.5-43,1.3c-2.7,0.1-5.5,0.2-8.2,0.2c-25.3,0.1-49.8,4.8-73.9,12.2
	c-7.3,2.2-14.6,4.6-21.4,8c-5.4,2.6-10.8,2.7-16.5,1.9c-5.9-0.8-11.9-1.6-17.7-2.9c-0.6-0.1-1.3-0.1-1.9-0.1c-1.9,1.4-3,3.4-4.7,5
	c-0.3,0.3-0.5,0.7-0.5,1.2c-0.2,3.4-2.2,5.9-4.2,8.3c-2.6,3-3.8,3.2-7.2,1.1c-1.6,0.2-3.2,0.1-4.8,0c-3.6-0.2-7.1,0.6-10.5,1.5
	c-6,1.6-12,3.4-18.3,4.2c-1.4,0.2-2.3,0.9-3.1,2c-2.2,3.1-4.1,6.4-6,9.7c-3.1,5.7-6.2,11.3-9.2,17c-3.9,7.5-9.7,13.1-16.9,17.3
	c-1.3,0.7-2.4,1.6-3.7,2.3c-2.2,1.2-2.7,3.2-2.9,5.4c0.3,0.1,0.5,0.3,0.6,0.3c6.9-1.2,13.7-2.7,19.9-6.1c2.4-1.3,3.6-3,4.1-5.7
	c0.7-4.2,2.3-8.2,3.7-12.2c1.3-3.4,3.4-5.8,7.6-6.4c5.8-0.8,11.5-1.4,17.3-1.9c7.2-0.6,14.5-1.1,21.7-2c4.7-0.6,9.4-0.9,14.1-1.3
	c7.3-0.6,14.6-1.5,21.9-2.4c5.1-0.6,10.2-1.6,15.4-1.9c2.5-0.1,4.8-1,7.2-1.2c0.9-0.1,1.4-0.8,2.1-1.3
	c16.7-12.7,34.9-22.5,54.8-29.2c9.9-3.3,20-5.1,30.3-6.6c7.2-1,14.5-1.3,21.8-0.9c11.2,0.6,22.3,0.6,33.4,2.1
	c8.6,1.1,16.9,3.2,25.2,5.8c6.8,2.1,13.6,4.1,20.1,7c9.2,4,17.3,9.6,24.8,16.1c4.5,3.9,8.9,8.1,13.3,12.1c6.3,5.7,11.2,12.6,16,19.6
	c3.7,5.3,7.3,10.6,10.8,16.3c8.4-1.3,16.9-1.9,25.2-4.1c0.8-2.4,0.3-4.6,0-6.8c-1.1-7.3-1.1-14.6-1.1-22c-0.1-6.3-0.2-12.5-0.9-18.8
	c-0.1-1-0.3-2-0.6-2.9c-0.9-2.3,0.1-4.5,0.2-6.7c0-0.3,0.2-0.5,0.3-0.7c0.5-1.1,1.4-1.7,2.6-1.4c1.3,0.3,1.6,1.3,1.7,2.5
	c0.2,5.4,0.4,10.9,0.5,16.3c0,0.8,0.1,1.6,0,2.5c-0.5,6.1-0.1,12.2-0.3,18.2c-0.2,5.6,0.3,11.3,0.4,16.9c0,2.3,0.1,4.5-0.6,6.9
	c1.7,0.3,3.4,0.5,5.1,0.8c5.5,1.2,6.5,2.4,6.7,8.5c0.1,2.5-0.5,5-1.3,7.5c-0.9,2.5-2.6,3.9-5.3,3.9c-7.2-0.2-14.3,1.5-21.4,1.4
	c-0.3,1.2,0.4,2,0.8,2.9c3.4,8,7.4,15.8,10.6,23.9c4.1,10.7,7.2,21.7,9.3,33c1,5.3,2.4,10.6,2.9,16.1c0.4,3.9,0.6,7.8,0.9,11.7
	c1,11.4,0.7,22.9,0.4,34.3c-0.4,14-1.4,27.9-3.8,41.7c-0.7,4.2-1,8.5-1.3,12.7c-0.6,7.8-2.6,15.4-4.6,22.9
	c-1.8,6.9-5.1,13.1-8.1,19.6c-2.4,5.2-5.5,9.8-9.4,13.9C789.5,489.3,788.3,490.7,787,492.3z M758,488.6c2-1.4,3.3-3.4,4.5-5.4
	c4.8-7.8,9.2-15.9,12.4-24.5c0.6-1.7,1.3-3.3,1.1-5.2c-1.2,1.8-2.3,3.7-3.2,5.6c-2.5,5.3-5.4,10.3-8,15.5c-2.3,4.5-5.1,8.7-7.4,13.3
	c-0.2,0.1-0.5,0.2-0.7,0.4c-3.1,4.8-6.7,9.2-10,13.8c-0.3,0.4-0.8,0.8-0.1,1.5c2.5-2.5,4.6-5.3,6.7-8.1
	C754.9,493.2,756.9,491.2,758,488.6z M523.9,278.5c0.9-0.4,1.9-0.7,2.8-1.1c5.2-2.4,10.4-4.7,15.8-6.7c9.7-3.7,19.3-7.4,29.3-10
	c10.9-2.8,21.9-5,33-7.1c10.2-1.9,20.4-3.2,30.7-3.8c2.9-0.2,5.8,0.2,8.7-0.5c-0.3-0.7-0.9-0.6-1.4-0.7c-5.1-0.7-10.1-0.7-15.2-0.1
	c-4,0.5-7.9,1.3-11.8,1.9c-9.4,1.3-19,1.4-28.3,3.3c-8.3,1.7-16.7,3.2-24.6,6.5c-3.3,1.4-6.7,2.3-10,3.5c-7.7,2.6-15.5,5.1-22.6,9.2
	c-2.4,1.4-4.9,2.8-6.7,5.1c-0.1,0.2-0.4,0.5-0.3,0.6C523.3,278.9,523.6,278.7,523.9,278.5z M783.2,496.8c-2.4,1.9-4.4,4.3-6.4,6.6
	c-2.7,3.1-5,6.4-5,10.8c0,0.9-0.5,1.7-0.9,2.5c-1,2-2.5,3.6-4.4,4.7c-1.6,1-2.7,2.4-3.6,4c-1.7,3.1-3,6.4-4.4,9.6
	c-1.9,4.2-3,8.7-4.5,13c-2.4,6.9-4.1,14.1-6,21.2c-3.3,11.6-6.1,23.4-11.2,34.4c-0.8,1.7-0.2,6.4,0.9,8.3c0.3-0.5,0.6-1,0.8-1.4
	c2.3-4.2,4.1-8.7,6.2-13c5-10.4,10.4-20.6,15-31.2c5.3-12.1,10.4-24.2,13.9-36.9c2.2-8.1,4.3-16.1,6.9-24
	C781.4,502.6,782.8,499.9,783.2,496.8c0.4,0,0.6-0.2,0.3-0.4C783.4,496.3,783.3,496.6,783.2,496.8z M841.6,580.4
	c2.7-0.1,4.7-1.2,6.3-3.5c2.8-3.9,5.9-7.6,8.8-11.4c4-5.2,9-9.4,13.4-14.3c0.5-0.6,1.3-1.2,2-1.4c1.9-0.5,3.2-1.7,4.6-2.8
	c4-3.1,8-6.3,12.2-9.1c0.8-0.5,1.7-1.1,2.3-1.9c1.1-1.5,2.6-2.5,4.1-3.6c2.2-1.6,4.8-2.6,7.1-4.1c5.2-3.4,10.8-5.2,16.9-6
	c-2.1-2.8-27-23.1-29.9-24.4c-0.7,1.8-1.9,3.2-3.5,4.4c-3.4,2.7-6.8,5.5-10.3,8c-8.3,5.7-15,13.2-21.9,20.3c-4.8,5-8.3,11-12.3,16.6
	c-4.5,6.2-9.3,12.1-13,18.8c-2,3.6-3.8,7.2-5.2,11c1.1,1.3,2,2.3,3,3.4c0.5,0.6,1,1.1,1.8,1.1C832.7,582.1,837.3,582.3,841.6,580.4
	L841.6,580.4z M487.4,323.3c3.4,3,3.7,4.8,1,8c-0.7,0.9-1,1.9-1.4,2.9c-1.8,5-2.2,10.3-2.7,15.5c-1.1,12.8-0.9,25.6,0.2,38.4
	c0.7,8.1,2,16.2,2.6,24.4c0.3,4.5,0.9,9,1.8,13.5c1.8,9.3,4.5,18.3,7.9,27.1c4.1,10.6,9.3,20.5,16.9,29c7.5,8.4,15.1,16.7,23.2,24.6
	c3.9,3.8,8.2,7.2,12.8,10.1c5.4,3.2,10.8,6.4,16.4,9.1c4.9,2.4,10,4.1,15.3,5.5c7.1,1.8,14.4,2.8,21.5,4.8c6.6,1.8,13.3,1.8,20,2
	c6.2,0.1,12.4-0.2,18.5-0.3c15.1,0,30.1-0.4,45-3.2c11.2-2.1,21.6-6.2,31.6-11.5c2.2-1.2,4.3-2.6,6.4-4.2c6-4.7,11-10.3,15.8-16.1
	c7.6-9.2,14.2-19,19.6-29.7c5.7-11.3,11.1-22.6,14.4-34.9c3.5-13,5.7-26,5.7-39.5c0-8.2-0.6-16.3-1.2-24.5c-0.3-4.2-1-8.5-1.8-12.6
	c-0.4-1.9-1.5-3.2-2.7-4c-2.9-2-4-4.7-4.6-7.8c-0.7-3.8-1.8-7.4-4-10.6c-1.4-2-2.2-4.2-2.8-6.5c-1.9-7.5-5-14.4-9.4-20.7
	c-2.4-3.3-4.7-6.7-7.1-10c-6.4-8.8-13.4-16.9-22.7-22.9c-0.6-0.4-1.2-0.9-0.9-1.8c1.1-1,2.1-0.2,3,0.3c4.9,2.7,9.4,5.8,13.2,9.9
	c8.7,9.4,16,20,22.8,30.9c0.8,1.3,1.6,2.7,2,4.2c1.1,3.8,2.8,7.3,3.8,11c0.5,1.9,3.1,5.8,4.3,6.7c-0.2-2.6-1.1-4.9-1.5-7.4
	c-1.1-5.5-2.3-11-4.5-16.2c-1.7-4.1-3.6-8.1-5.4-12.2c-1.9-4.2-4.6-7.8-7.7-11.2c-4.6-5-10.3-8.6-15.8-12.5
	c-11.1-7.8-23.4-13.1-36.5-16.5c-10.3-2.7-20.7-4.6-31.2-6c-7.9-1.1-15.8-2.3-23.8-2.1c-3.5,0.1-7.1,0.2-10.6,0.4
	c-8.6,0.6-17.2,1.5-25.6,3.2c-7.3,1.5-14.5,3.1-21.8,4.6c-10,2-19.9,4.1-29.5,7.5c-0.8,0.3-1.7,0.3-2.2,1c-2,2.3-4.8,3.6-7.4,5
	c-4.5,2.3-8.3,5.5-12,8.8c-3.6,3.3-7.2,6.7-12.1,8c-0.3,0.1-0.6,0.4-0.9,0.6c-3.8,3.5-7.6,7-10.9,11.1c-4.1,5.2-7.5,10.9-11.1,16.4
	c-2.5,3.8-4.4,7.9-5.8,12.3c-1.9,6.1-2.9,12.4-3.2,18.7c-0.3,5-1,10-0.3,15c0.1,0.7,0.1,1.4-0.3,2.1c-1,1.8-1.1,3.8-1.1,5.8
	c0,1.1,0.2,2.3-0.3,3.4c-1.5-0.1-2.2-1-2-2.2c0.3-2.4-0.1-4.7-0.3-7.1c-0.4-5.3,0.1-10.5,0.3-15.8c0.3-8.2,2-16,5.1-23.5
	c2.8-6.8,6.9-13,10.7-19.2c2.2-3.5,4.5-7,7.3-10.2c5.2-6,11.7-10.3,18.1-14.8c2.8-2,5.2-4.2,7.3-6.8c0.3-0.4,0.8-0.7,0.5-1.2
	c-0.8-0.3-1.3,0.3-1.8,0.5c-5,2.2-9.9,4.5-14.8,7c-8.1,4.1-14.6,10.1-20.7,16.6C494.5,309.3,490.8,316.1,487.4,323.3z M469.5,301.1
	c1-1.3,2-2.5,3-3.8c6.9-9.5,15.4-17,25.5-22.9c9.1-5.3,18.5-10,28.2-14.3c14-6.1,28.3-11.3,43.2-14.9c6.8-1.7,13.6-3,20.6-3.9
	c6.8-0.9,13.6-1.1,20.4-1.6c7.9-0.5,15.8-0.8,23.7-1.1c9-0.3,18-0.4,27-0.1c6.4,0.1,12.7,0.9,19,1.9c8.1,1.3,16.1,2.6,24.1,4.1
	c9,1.7,18,3.5,26.6,6.6c8.2,2.9,15.5,7.6,23.3,11.3c1.5,0.7,2.9,1.6,4.3,2.4c4.7,2.8,8.7,6.6,13.1,9.7c4.4,3.1,8.3,6.7,11.8,10.9
	c6.5,7.8,9.6,16.7,9.9,26.8c0.1,4.6,0.1,9.3,0.2,13.9c0.1,4.2,1,8.3,3.6,11.8c1.1,1.5,2,3,2.9,4.6c3.4,5.6,5.9,11.5,7.2,17.8
	c1.6,7.6,1.8,15.3,1.8,23c0,2.5-0.3,5.1-1.1,7.5c-1.9,5.9-2.6,12.1-3.4,18.2c-1.6,12.1-4.1,24-8.3,35.4c-1.5,4.1-3.4,8-6.2,11.5
	c-2.1,2.7-4.3,5.2-6.7,7.5c-3,2.7-4.9,6-5.8,10c-0.6,2.6-1.3,5.1-1.9,7.7c-1.1,4.8-2.7,9.4-4.2,14.1c-0.7,2.2-0.4,4.2,0.9,6.3
	c1.6-0.8,2.5-2.1,3.5-3.4c4.2-5.9,8.6-11.7,13.7-16.9c0.8-0.8,1.4-1.6,1.4-2.9c0-1.5,0.7-2.8,1.7-3.9c1.8-2.1,3-4.5,4.2-7
	c1.4-3,2.3-6.3,3.4-9.5c2.4-7.3,4.7-14.7,5.9-22.3c1.2-7.5,1.9-15.1,2.9-22.7c1-7.4,1.3-14.8,1.4-22.3c0.3-15.5,0.9-31.1-0.3-46.6
	c-0.4-5.3-0.6-10.5-1.4-15.7c-2.4-15.5-6.5-30.5-12.4-45c-3-7.4-6.7-14.5-9.8-21.9c-4.4-10.6-9.2-21-15.6-30.5
	c-3.3-5-6.8-9.9-10.1-14.9c-3-4.6-6.5-8.8-10.7-12.3c-3.7-3.1-7.4-6.2-10.9-9.5c-9.7-9.1-20.4-16.4-33.1-21
	c-14.9-5.4-30-9.2-45.8-10.2c-3.9-0.3-7.8-0.3-11.7-0.8c-4.7-0.6-9.4-1.1-14.1-1.2c-12.2-0.4-24.1,1.6-35.9,4.3
	c-7.6,1.7-14.8,4.9-22.1,7.7c-7.2,2.8-13.5,7-20.1,10.8c-12.5,7.2-23.7,15.9-33.6,26.3c-7.1,7.5-14.1,15.2-20.4,23.4
	c-13.9,18.2-24.7,38-31.3,60.1C469.9,295.8,469.3,298.3,469.5,301.1z M395.4,240c-0.1,2.7-0.5,5.1-0.3,7.5c0.4,4.7,0.5,9.4,0.8,14.1
	c0.7,10.4,1,20.9,1.5,31.3c0.6,12.2,1.1,24.3,1.3,36.5c0,1.5,0,2.9,0.1,4.4c0.5,7.8,1,15.6,1.4,23.4c0.3,6,0.5,12,0.6,18
	c0.1,8.9,0.1,17.8,0.2,26.7c0,2.1-0.7,3.7-2.5,4.7c-0.9,0.5-1.6,1.2-2.3,1.9c-3.7,3.9-7,8.1-10.2,12.4c-2.9,3.8-4.8,8.1-4.7,13.1
	c0,0.7-0.1,1.4-0.3,2.2c-0.6,3.3-1.3,6.6-1.9,9.9c-1.6,9.7-3.3,19.3-4.8,29c-1.2,7.6-2.4,15.3-2.8,23c-0.4,8.3-0.4,16.5,0.5,24.8
	c0.9,8.6,2,17.1,5.5,25.1c0.8,1.9,1.6,3.8,3.2,5.6c5.3-7.5,11.3-14.3,17.7-20.8c6.5-6.6,13.8-12,21.4-17.3c-1-1.9-1.4-3.8-1.7-5.7
	c-1.5-10.3-1.8-20.8-2.2-31.2c-0.3-7.6-0.7-15.2-1-22.9c-0.1-3.2,0.7-6.1,3.2-8.4c2.1-2,4.5-3.6,7.2-4.9c6-3,12.4-5.3,18.9-6.9
	c4.4-1.1,8.8-2.8,13.6-0.7c0-0.7,0.1-1.2,0-1.6c-1.3-9-1.1-18.1-1.4-27.2c-0.3-9.2,0.4-18.3,0.8-27.5c0.5-10.8,0.1-21.6,0.1-32.4
	c0-7.9-0.2-15.8,0.5-23.7c0.6-6.9,2.1-13.6,3.2-20.4c2-12,5.4-23.7,10.6-34.8c5.9-12.6,12.3-25,21.3-35.7
	c9.1-10.9,18.7-21.3,28.8-31.3c0.6-0.6,1.5-0.9,1.6-2.2c-15.7,2.4-31.4,3.7-47,6.1c-15.7,2.3-31.6,2.9-47.4,4.9
	c-0.8,5.4-2.2,10.5-3.7,15.6c-0.7,2.4-1.9,4.2-4,5.6c-2.7,1.8-5.6,2.9-8.7,3.9C406.7,235.9,401.2,237.9,395.4,240z M729.3,600
	c-4.7,0.1-9-0.9-13.4-1.5c-0.6-0.1-1.3,0-1.9,0c-5.2,0.3-10.3,0.6-15.5,0.9c-9,0.6-17.9,1.3-26.9,1.9c-7.9,0.6-15.7,1.6-23.6,2.1
	c-5.7,0.3-11.4,1.1-17.1,1.4c-6.8,0.5-13.6,0.9-20.4,1c-4.1,0-8.1,1-12.3,0.9c-11.3-0.4-22.7-0.5-34.1-0.2c-1.9,0.1-3.8,0.3-5.4-1.6
	c-0.1,3.5-0.3,6.8,0.1,10.2c0.3,2.6-0.1,4.9-2.6,6.4c-0.2,0.1-0.3,0.4-0.5,0.7c0.1,6.5,0,13,0.5,19.5c0.6,7.4,0.8,14.9,1.3,22.3
	c0.6,8.1,1.2,16.3,1.9,24.4c0.8,8.7,1.2,17.4,1.9,26.1c0.1,2,0.4,3.9,0.6,6c3.8-0.9,7.4-0.5,11-0.2c7.1,0.6,14.3,1.3,21.4,1.8
	c11.7,0.8,23.4-0.8,35-2.4c9.3-1.2,18.6-1.8,27.9-2.5c10.1-0.7,20-2,29.9-4c3.1-0.6,5.3,0.2,7,2.8c0.7,1.1,1.3,2.2,1.7,3.4
	c1,2.7,3,3.6,5.7,3.5c3-0.1,6,0,9-0.1c3.2-0.1,6.3-0.2,9.5-0.6c4.4-0.6,8.5-2.7,12.9-1.4c0.7-0.9,0.5-1.6,0.5-2.3
	c-0.2-6.1-0.7-12.1-0.5-18.2c0.3-13.4-1-26.7-1.3-40c-0.2-8.8-0.7-17.6-0.7-26.4c0-7.6,0.2-15.3-1.2-22.8c-2.6-2.6-2.8-3.5-1.4-7
	C728.9,602.9,729.2,601.7,729.3,600z M540.2,538.1c0.4,1.5,0.7,2.4,1,3.3c2.4,7.4,4.9,14.8,6.7,22.4c1.5,6.3,2.6,12.6,4.1,18.9
	c1,4.5,2.4,8.9,3.7,13.4c1.6-0.3,3.1-0.5,4.5-0.4c1.3,0.1,2.7,0.2,3.5,1.3c1,1.5,2.6,1.6,4.1,2.4c0-1.4,0-2.6,0-3.8
	c0-4,1.4-7.4,3.7-10.6c1.1-1.5,2.6-2.5,4.4-3c1.4-0.4,2.8-0.6,4.3-0.6c6.1,0,12.2,0.1,18.3,0.5c3.4,0.2,4.6,1.2,5.4,4.6
	c0.8,3.6,0.6,7.2,0.6,10.9c0,1-0.3,2,0.2,3.1c23.6-0.5,47-3.1,70.2-5.8c1.1-3,1-6,1.8-8.8c0.7-2.8,2.4-4.6,5.2-5.5
	c0.7-0.2,1.4-0.4,2.1-0.6c5.6-1,11.4-1.2,17-2c2.2-0.3,3.8,0.8,4.9,2.7c0.8,1.4,1.1,3.1,1.6,4.6c0.7,2.3,0.4,4.8,0.9,7.4
	c8.4-0.8,16.2,2.4,24.3,2.6c5.4-10.8,8.6-22.2,13.1-33.3c-6.7-1.8-13-4.2-19.8-4.1c-1.8,0-3.4-0.3-4.3-2.2
	c-3.9,1.1-7.8,1.8-11.7,2.1c-8.5,0.6-17.1,0.8-25.6,0.5c-8.1-0.2-16.2-0.6-24.2-0.8c-8.8-0.2-17.6-0.2-26.4-0.2
	c-9.3-0.1-18.5,0.1-27.8-0.2c-13.4-0.4-26.9-1-40.3-1.4c-2.8-0.1-5.6-0.3-8.4-0.6c-4.5-0.4-6.1-2-6.6-6.4c-0.2-1.4-0.2-2.9-0.3-4.4
	c-0.1-1,0-2-0.8-3C546.3,541.5,543.8,539.2,540.2,538.1z M483.6,464.2c0-0.7,0.1-1,0-1.4c-1.4-5.7-1.8-11.5-1.6-17.3
	c0.2-4.7,0-9.4,0.6-14.1c0.4-3-0.6-5.9-1-8.9c-0.5-4.3-0.7-8.7-1.3-13c-1.3-9.9-2.8-19.8-3-29.8c-0.2-10.3-0.6-20.5,0.5-30.8
	c0.5-5,0.7-9.9,2.4-14.7c0.5-1.3,1.1-2.8,0.8-4.2c-0.5-2.1,0.2-3.9,0.9-5.8c2.2-5.5,5-10.7,7.7-15.9c3.9-7.4,9.6-13.2,15.8-18.6
	c2.3-2,4.5-4.1,6.5-6.5c2.5-3.1,4.9-6.3,7.9-8.9c4.4-3.8,9.5-6.4,14.8-8.6c15-6.1,30.4-11.3,46.3-14.8c8.3-1.8,16.5-3.1,25-3.5
	c4.6-0.2,9.2-0.4,13.8-1.8c-1.3,0-2.4-0.1-3.6,0c-5.7,0.3-11.4,0.6-17.1,1.1c-4,0.3-8,0.6-11.9,1.3c-12.1,1.9-24,4.8-35.6,8.8
	c-17.4,5.9-34.2,13.2-50.3,22c-8.7,4.7-16.2,10.7-22.2,18.5c-4.3,5.6-9,10.9-12,17.4c-1.3,2.8-2.1,5.6-2.3,8.6
	c-0.2,3.6-0.4,7.3-0.7,10.9c-0.9,10.4-2.1,20.8-2.4,31.2c-0.4,13.4,0,26.7,0.8,40c0.5,8.6,1.3,17.2,2.3,25.7
	c0.7,5.7,2.2,11.3,5.3,16.2C473.8,453.4,478.9,458.5,483.6,464.2z M437.8,505.1c6.4-2.2,13-3.7,19.6-4.7c5.5-0.9,10.8-2.5,16.3-3
	c1.2-0.1,1.7-0.9,2.3-1.8c3.8-6,6.6-12.4,7.4-19.4c-4.3-6.1-9.5-11.1-14.3-16.3c-4.4-4.8-7.6-10.1-9.4-16.4
	c-0.2-0.6-0.1-1.3-0.9-1.8c-2.5,1.6-5.3,3-7.9,4.5c-5.8,3.2-11.5,6.5-17,10.2c-1.4,0.9-2,2-1.9,3.6c0.1,1.9,0.1,3.8,0.3,5.7
	c0.9,6.5,1.7,12.9,2.5,19.4C435.6,491.8,435.8,498.4,437.8,505.1z M550.3,525.6c0,1.7,1.3,1.9,2,2.6c2.2,2.1,2.3,3.2,0.4,5.7
	c2.1,5.3,1.2,11.2,2.5,16.9c1.1,0,1.9,0.1,2.7,0.1c5.8,0,11.6,0.1,17.4,0c20.6-0.2,41.2-0.1,61.9-0.5c13.3-0.3,26.7,0.2,40,0.8
	c11.4,0.5,22.9,0.4,34.4,0.2c2.5,0,5-0.3,7.5-0.9c1.7-8,2.8-16,3.5-24.1c-1.2,0.1-1.8,0.7-2.6,1.1c-8.3,4.5-16.7,8.9-26.1,10.6
	c-2.9,0.5-5.7,1.1-8.5,1.6c-8.2,1.4-16.5,2.8-24.8,3.4c-4.2,0.3-8.5,0.3-12.8,0.4c-11.7,0.1-23.4,0.6-35.2,0.2
	c-3.2-0.1-6.3-0.5-9.4-1.2c-7-1.6-13.9-3.3-20.9-4.9c-7.9-1.8-15.6-4.2-22.8-7.9C556.7,528.2,553.7,526.7,550.3,525.6z M708.5,252.6
	c0.1,0.7,0.3,0.8,0.6,0.9c3.7,0.8,7.3,2.1,10.9,3.4c10.7,3.9,20.5,9.7,30.4,15.2c5,2.7,9.1,6.3,12.2,11c1.8,2.6,3.8,5.1,5.6,7.7
	c1.8,2.5,4.1,4.7,5.4,7.5c3.2,6.6,6.2,13.3,8.3,20.4c2.2,7.5,2.1,15.2,1.8,23c-0.1,2.6-0.5,5.1-2.8,6.9c6.1,21.4,6.6,43.2,4.7,65.1
	c0.6,1,1.4,1.8,1.6,2.9c0.6,4,1.4,8,0.7,12.2c-0.8,5.5-1.6,10.9-2.4,16.4c0,0.2-0.2,0.7,0.4,0.8c0.2-0.3,0.4-0.5,0.6-0.8
	c0.5-0.8,0.9-1.6,1.4-2.4c4.6-8.1,6.9-17,8.9-25.9c1.7-7.7,2.7-15.6,4.6-23.2c1.4-5.8,1.7-11.7,1.4-17.6c-0.1-1.4-0.3-2.9-0.4-4.3
	c-0.8-8.3-3.1-16-7.4-23.1c-1.3-2.1-2.5-4.3-3.9-6.2c-3.5-4.8-4.7-10.1-4.4-15.9c0.1-1.7,0.1-3.4,0.3-5.2c0.8-7-0.5-13.7-3.1-20.3
	c-1.1-2.7-2.3-5.3-4.1-7.7c-4.1-5.5-9.1-10-14.4-14.4c-10-8.3-21.5-13.9-32.9-19.7c-5.5-2.8-11.6-4-17.6-5.6
	C712.8,253.2,710.7,252.9,708.5,252.6z M813.3,564.9c1.8-2.2,3.8-3.8,5.2-6.2c7.2-12.6,13.6-25.6,21.8-37.8c-1-1.2-1.4-2.6-1.4-4
	c-1.3-0.9-6.8-3.1-8.6-3.6c-1.2-0.4-2,0.9-3.1,0.5c-1.2-0.4-1-1.7-1.5-2.3c-5.4-2.8-10.8-4.9-16.2-7.4c-1.7-0.8-3.4-1.6-4.4-3.3
	c-9.6,9.9-21.9,39.3-22.1,46.1c6.6,1.5,12.5,4.9,18.8,7.9c0-1.9-0.1-3.6,1.9-4.1c2.2,0.9,3,1.7,4,4c-0.5,1.9-2.2,1.5-4,2
	C807.2,559.2,810.2,561.8,813.3,564.9z M819.2,572c0.4-0.6,0.6-0.7,0.7-1c2.9-6.4,6.9-12.1,11.1-17.7c4.9-6.5,10.4-12.6,14.8-19.4
	c2.1-3.2,4.1-6.4,6.8-9.2c3.8-4,7.6-8.1,11-12.5c4.2-5.3,9-9.7,15.1-12.8c2.5-1.3,4.8-2.8,7.5-4.4c-5.3-4-10.4-7.8-15.3-11.5
	c-5.3,2.5-9.9,5.5-14.3,8.8c-7.4,5.6-14.3,11.8-22.1,16.9c-0.3,0.2-0.5,0.5-0.4,1c2.4,1.1,4.6,2.7,6.6,4.7c4.3-5.1,8.9-9.5,14-13.5
	c4-3.2,8.3-6.2,12.6-9.1c2.1-1.4,2.6-1.3,3.8,0.9c-1.7,2.5-4.1,4.3-6.4,6.2c-7.4,6.4-15.1,12.5-21.4,20.5c0.5,1.7-0.3,3.5-1.2,5.1
	c-1.7,3.1-3.4,6.2-5.3,9.2c-5.7,9.1-11.2,18.2-16.5,27.5c-1.2,2.1-2.4,4.2-4.9,5.4C816.7,568.9,817.8,570.3,819.2,572z M527.7,530.7
	c-0.3,0.5-0.3,0.8-0.2,1.2c1.5,5.4,2.1,11,3,16.5c1.4,8.6,2.7,17.2,4.9,25.6c2.4,9.4,5.4,18.6,7.5,28.1c1.1,4.9,2.1,9.7,3.1,14.6
	c0.1,0.6,0.2,1.3,0.8,1.7c0.7,0.1,1.4,0.1,2.2-0.7c0.3-5.9-0.5-12.2,2.3-17.9c-1.5-5.6-3.4-11-4.4-16.6c-1.8-9.8-3.8-19.6-7-29
	c-1.6-4.7-3.2-9.4-4.8-14.1c-0.7-1.9-2.2-3.5-1.9-5.7C531.3,533.1,529.5,531.9,527.7,530.7z M820.8,504c0-1.7,0.6-2.8,1.4-3.9
	c3.6-5,7.9-9.3,13-12.6c4.8-3.1,9.7-6.1,14.6-9.1c0.9-0.6,1.8-1.3,3-0.9c0.9,1.1,0.4,2-0.3,2.9s-1.7,1.7-2.6,2.4
	c-4.7,3.4-9.3,7-13.6,10.8s-8.4,7.8-13,11.5c2,1.2,3.9,2.1,6.1,2.8c4.7-3,8.9-6.6,13.1-10.3c4.9-4.4,9.9-8.8,15.8-11.9
	c2.9-1.5,5.9-3.1,9.1-4.2c-4.3-4.6-10.5-6.6-18.3-9.1c-13.8,7.3-26.6,16-36.8,28C814.7,501.4,817.6,502.6,820.8,504z M742.6,557
	c1.4-2.8,2.8-5.3,4.1-7.9c3.5-6.8,6.8-13.6,9.6-20.7c0.2-0.6,0.8-1.3,0-2c-2.6,0.9-5.3,1.9-7.9,2.7c-4.7,1.5-9.2,1.6-13.7-0.9
	c-1.3-0.7-2.6-1.3-4.3-1.5c-2.6,9.3-3.4,19-6.8,28.3C730.1,555.3,736.3,556.5,742.6,557z M791.4,609.7c-3.6,3.1-7.3,5-11.5,5.8
	c-3.6,0.7-7.2,1.1-10.8,1.3c-7,0.3-14,0.5-20.9,1.1c-2.1,0.2-4.2,0-6.2-0.6c-1.3-0.4-2.7-0.7-2.8-2.5c-0.1-0.7-0.9-0.8-1.6-1
	c-0.2,0.9-0.1,1.8,0.1,2.7c2.8,2.2,2.8,3.3,0.3,5.9c0.1,1.7-0.1,3.5,0.3,5.5c4.2-0.9,8.2-0.3,12.3-0.1c4.5,0.2,8.9-0.2,13.3-0.4
	c10.3-0.6,20.3-2.3,30-6.4C793.3,617.3,792.6,613.7,791.4,609.7z M487.1,446.6c0.3,6.5,1,12.5,3.1,18.2c3.6,9.7,7.5,19.2,12.8,28.2
	c4.6,7.8,9.9,14.8,16.3,21c5.5,5.3,11.5,10,17.9,14.2c3.6,2.3,7.5,4.3,11.3,6.4c0.6-2.2,0-3.6-1.5-4.8c-1.6-1.3-3.2-2.6-5-3.7
	c-3.5-2.1-6.9-4.3-10.3-6.6c-4.1-2.8-7.6-6.2-10.1-10.5c-1.2-2-2.7-3.9-4.1-5.8c-2.1-2.7-3.8-5.5-5.6-8.4c-3.2-5-5.4-10.7-9-15.5
	c-6.2-8.3-10-17.9-13.5-27.5C488.7,450.2,488.3,448.5,487.1,446.6z M439.7,445.1c-0.8-0.3-1.5,0.1-2.3,0.4
	c-4.4,1.8-8.8,3.8-13.4,5.4c-3,1.1-4.2,2.8-4,5.9c0.4,5.4,0.8,10.9,0.9,16.3c0.1,9.7,1.2,19.4,2.4,29c0.4,3.1,1.1,6,2.3,9
	c1.8-0.7,3.2-1.8,4.8-2.7c-0.1-1.3-0.3-2.6-0.2-3.8c0.6-6.8-0.6-13.4-1.2-20.1c-0.7-7.7-1.6-15.3-2.4-23c-0.5-4.6,1.1-8.2,5.1-10.6
	c2.2-1.4,4.5-2.8,6.7-4.1C439,446.4,439.8,446.2,439.7,445.1z M730.2,520.3c0.4,1.5,1.6,1.4,2.5,1.6c1.7,0.3,3.4,0.7,5,1.2
	c2,0.6,3.9,0.7,5.9,0.2c5-1.1,9.6-3.4,14.3-5.2c3.8-1.4,5.8-4.2,7.1-7.7c0.3-0.9,0.5-1.9,0.7-2.7c-1.8-4.1-2.5-8.1-1-12.3
	c0.6-1.8,1.2-3.6,1.1-5.6c-1,0.1-1.2,0.8-1.6,1.2c-5.2,5.8-10,12-15.6,17.5C743.4,513.6,737.5,517.8,730.2,520.3z M793.8,251
	c-0.8,0.8-1.8,0.2-2.4,0.7c0.1,0.7,0.5,0.8,0.8,0.7c5.4-1.4,10.9-1.6,16.4-2.3c1.7-0.2,3.4-0.3,5.1-0.8c1.6-0.5,2.5-1.5,2.7-3
	c0.3-2.3,0.4-4.7-0.3-7.2c-7.7-0.4-15.2-2.4-23.1-0.3c0.5,2.5,0.8,4.9,1.4,7.3C794.9,247.9,794.9,249.5,793.8,251z M575.6,601.5
	c7.5-0.7,14.8,0.2,22.4-0.4c0-4.8,0-9.4,0-14.1c-6.5-0.1-12.8-0.2-19.1,0.1c-1.4,0.1-2.7,0.4-3.9,1.1c-0.9,0.5-1.5,1.1-1.5,2.1
	c-0.2,2.8-1.1,5.5-0.4,8.5C574.3,599.2,575.3,600,575.6,601.5z M833.5,467.7c-9,8.1-24.8,26.5-26.8,31.1c1,0.1,2,0.3,3,0.4
	c3.9-4.6,8.2-8.7,12.3-13.1c4.7-5,10.1-8.8,16.1-12c1.5-0.8,3.1-1.6,4.6-2.4c0.7-0.4,1.5-0.5,1.9-1.3
	C841.1,468.6,837,469.7,833.5,467.7z M700.5,582.7c-2.5-0.5-4.7-0.2-7,0.1c-3.4,0.4-6.8,0.9-10.2,1.5c-1.4,0.2-3.1,0.5-3.1,2.4
	c0,2.6-0.1,5.2,0.9,7.7c7.2-0.6,14.3-1.1,21.6-1.7C701.9,589.2,701.2,585.9,700.5,582.7z M714.9,261.8c-7.2-3.9-15-5.9-22.8-7.6
	c-7.9-1.8-15.8-2.7-24.1-2.6c8,1.4,15.9,2.6,23.7,4.2C699.5,257.4,707.2,259.6,714.9,261.8z M731,268.5c0.9,1.6,2.6,1.7,4,2.5
	c5.2,3.1,10.2,6.6,15.1,10.1c2.8,2,5.3,4.4,7.5,7c0.7,0.8,1.4,2.1,2.9,1.9c-1.6-1.8-2.3-4.1-3.7-5.9c-3.5-4.6-8.2-7.5-13.5-9.7
	c-1.2-0.5-2.2-1-3.2-1.8C737.4,270.5,734.4,269.1,731,268.5z M776.9,331.7c0.7-10-5.4-28.4-11.1-33.9c0,0.3-0.2,0.6-0.1,0.8
	C770.3,309.3,775.1,320,776.9,331.7z M788.9,246.9c0.1-0.1,0.3-0.1,0.4-0.2c-0.4-2.4-0.9-4.9-1.3-7.2c-0.9-0.4-1.7-0.4-2.6,0.4
	C786.5,242.2,787.7,244.6,788.9,246.9z M547.2,624.4c0.2,3.8,0.5,4.7,1.7,5.7c0-2.1,0-4.1,0-6.2
	C548.2,623.7,547.7,623.9,547.2,624.4z M668.9,245.9c0-0.1,0-0.2,0-0.3c-2.9,0-5.7,0-8.6,0c0,0.1,0,0.2,0,0.3
	C663.2,245.9,666,245.9,668.9,245.9z M774.4,353.7c0.3-3.2,0.3-3.2-0.9-5.4C773.4,350.1,773.4,351.8,774.4,353.7z M776.5,451.8
	c-0.2,0.3-0.3,0.6-0.1,0.7C776.6,452.6,776.6,452.2,776.5,451.8z M716.7,262.2c-0.3-0.5-0.6-0.6-1-0.1
	C715.9,262.6,716.3,262.6,716.7,262.2z M784.1,495.7l0.1-0.2h-0.1V495.7z"/>
<path class="st0" d="M466.1,514.6c0.6-1.4,1.4-1.4,2.3-1c0.9,0.5,1.7,1,2.4,1.7c8.6,8.5,17.2,17.1,23.3,27.6
	c6.1,10.5,12.2,21.1,16.9,32.3c2.7,6.5,3.6,13.3,4.9,20c1.2,6.6,1.9,13.3,2.7,19.9c0.1,1,0.1,1.9-1.1,2.1c-1.1,0.2-1.7-0.6-1.9-1.5
	c-0.6-3-1-6.1-1.5-9.1c0-0.2,0-0.4-0.1-0.5c-3.2-11-4.5-22.4-8.8-33.1c-2.9-7.1-7.2-13.4-11-20c-5.9-10.1-13-19.4-20.3-28.6
	C471.2,521.2,468.8,517.7,466.1,514.6z"/>
<path class="st0" d="M919.1,687c10.9-4.5,22.5-5.9,33.6-9c5-1.4,10.2-1.6,15.4-1.8c0.6,0,1.3,0,1.9,0.1c1.2,0.2,2.2,0.6,2.2,2
	c0,1.3-1,1.8-2.2,2c-2.3,0.3-4.7,0.6-7,1c-8,1.3-16,2.1-23.9,3.7c-5,1-9.7,3.1-14.6,4.4c-1,0.3-2.1,0.5-3.2,0.8
	c-1,0.3-1.8,0.2-2.5-0.4c-0.7-0.7,0.1-1.7-0.5-2.4c-0.2,0.1-0.5,0.2-0.6,0.4c-1.1,1.5-2.1,3-3.2,4.4c-0.9,1.2-2,2.1-3.5,2.4
	c-1.1,0.2-2-0.1-2.7-0.9c-0.7-0.8-0.7-1.8-0.2-2.8c5.4-11.3,13.3-20.3,24.2-26.6c2.7-1.6,5.6-3,8.4-4.5c0.5-0.3,1-0.5,1.5-0.6
	c0.8-0.3,1.7-0.1,2.2,0.6c0.5,0.8,0.3,1.6-0.2,2.3c-0.9,1.1-2.2,2-3.3,2.8c-6,4.1-11.2,8.9-16.2,14.1c-1.9,2-3.6,4.1-5.2,6.3
	C919.2,685.6,918.8,686,919.1,687z"/>
<path class="st0" d="M441,559.5c1.5-0.7,2.1,0.4,2.9,1.1c4.1,3.9,7.5,8.4,10.7,13c6.4,9.1,11.9,18.7,16.7,28.7
	c2.4,4.9,4.2,10.1,5.8,15.2c2.4,7.7,4.6,15.5,6.8,23.2c0.4,1.3,0.6,2.6,0.8,4c0.1,1.2,0,2.4-1.2,3.1c-1.8-0.2-2-1.7-2.4-2.9
	c-2.2-5.9-4.2-11.8-6.5-17.6c-4-10.2-7.1-20.8-12.1-30.6c-6.1-12-12.4-23.9-20.8-34.4C441.1,561.5,440.4,560.8,441,559.5z"/>
<path class="st0" d="M391.9,594.8c0.8-0.4,1.4-0.1,1.9,0.2c5.4,2.7,10.9,5,16.1,8c12.6,7.3,24.8,15.1,35.9,24.4
	c4.9,4.1,10,7.8,14.4,12.4c1.1,1.1,2,2.3,3,3.5c0.6,0.7,0.9,1.6,1.1,2.5c0.3,1.2-0.1,2.2-1,2.9c-0.9,0.6-1.9,0.5-2.8,0
	c-0.6-0.4-1.2-0.9-1.7-1.3c-5.2-4.2-9.9-8.8-14.7-13.4c-10.3-10-21.9-18.5-33.9-26.4c-4.8-3.2-10-5.9-15-8.8
	c-1.1-0.6-2.1-1.4-3.1-2.1C391.6,596.2,391.5,595.6,391.9,594.8z"/>
<path class="st0" d="M902.7,555.6c1.7,1.9,3.8,3.1,6.1,4.1s4.7,1.9,7,2.9c3.1,1.3,5.4,3.2,6,6.8c0.3,2.1,1.7,3.8,3.2,5.3
	c3.6,3.9,7.6,7.3,11.5,10.8c1.5,1.4,3.4,2.4,4.2,4.4c-0.2,1.4-1.1,1.6-2.2,1.5c-1.2-0.2-2.3-0.7-3.2-1.4c-4.6-3.3-9.1-6.6-13.1-10.6
	c-2.4-2.3-3.9-5.2-4.2-8.6c-0.3-3.7-1-4.5-4.7-5.1c-3.4-0.5-6.8-1.3-10.1-2.2c-1.1-0.3-2.3-0.6-3.4-1.1c-3.8-1.6-5.3-4.5-4.4-8.5
	c1.1-4.9,3.5-9.1,6.4-13.1c0.9-1.2,1.8-2.3,2.8-3.4c0.9-1,2.1-1.4,3.4-0.7c1.2,0.7,1.7,1.9,1.3,3.5c-0.4,1.7-1.3,3.2-2.2,4.7
	C905.3,548.1,903.4,551.4,902.7,555.6z"/>
<path class="st0" d="M877.9,569.2c0.4-1.6,1.5-2.2,2.8-2.3c3.1-0.3,6.2-0.2,9.1,1.1c3.2,1.4,5.6,3.6,7.2,6.7c1,2,1.6,4,2.3,6.1
	c0.6,1.8,1.2,3.6,1.9,5.4c0.9,2.1,2.1,4,4.4,5c1,0.4,2,1,2.3,2.3c-0.4,1.5-1.6,1.9-3.1,1.9c-3-0.1-5.3-1.6-7.1-3.9
	c-2.7-3.5-4.4-7.5-5.6-11.7c-0.3-0.9-0.5-1.7-0.7-2.6c-0.7-3-2.7-4.6-5.7-5c-1.7-0.2-3.4-0.5-5.1-0.8
	C879.4,571.1,878.3,570.6,877.9,569.2z"/>
<path class="st0" d="M728,231c0.2,1.3,0.2,2.3-0.3,3.6c-2.1-0.9-4.1-1.7-6-2.6c-11.3-5.4-23.4-8.3-35.6-10.7
	c-10.9-2.2-21.9-3.1-33-3c-8.7,0.1-17.4,0.7-26.1,1.8c-6.7,0.9-13.5,1.5-20.3,2.5c-15,2.2-29.9,4.9-44.4,9.3
	c-7.8,2.4-15.5,5.1-23.1,8.2c-0.4,0.2-0.8,0.5-1.3,0.4c-0.7-0.7-0.7-1.6-0.6-2.6c1.4-1.3,3.3-1.8,5-2.5c15.6-6.1,31.6-10.7,48-14.1
	c9.9-2.1,19.8-3.6,29.8-4.8c8.1-1,16.2-2.1,24.4-2.4c11.1-0.5,22.2-0.4,33.2,1.2c9.1,1.4,18.1,3.1,26.9,5.4c5.9,1.6,11.4,4.2,16.8,7
	C723.7,228.8,725.9,229.9,728,231z"/>
<path class="st0" d="M562.5,217.8c0.5-1.8,2-1.8,3.1-2.1c5.8-1.6,11.6-3,17.3-4.6c6.7-1.8,13.5-2.9,20.3-3.8
	c6.7-0.9,13.5-1.7,20.2-2.5c2.9-0.3,5.8-0.6,8.7-0.7c11.8-0.6,23.6-0.6,35.4,0.2c9.3,0.6,18.6,1.7,27.9,3.2c1.4,0.2,2.8,0.6,4.2,1
	c0.9,0.2,1.7,0.7,2.3,1.4c0.6,0.6,0.7,1.3,0.4,2c-0.3,0.6-0.8,1-1.5,1c-1.7,0.1-3.4-0.1-5.2-0.3c-7.1-0.8-14.2-1.6-21.4-2.5
	c-7.9-1-15.7-1.5-23.6-1.7c-11.4-0.2-22.7,0.4-34,1.6c-10,1.1-20,2.2-29.9,4c-6.8,1.2-13.5,2.7-20.2,4
	C565.3,218,564,218.7,562.5,217.8z"/>
<path class="st0" d="M424.6,260.5c9.4-1.3,18.6-1.6,27.7-2.4c2.3-0.2,4.5-0.3,6.8,0.1c3.7,0.5,5,2,5.1,5.8c0,3.3,0,6.5-0.1,9.8
	c-0.1,3.1-1.5,5-4.6,6c-3.3,1-6.7,1.7-10.1,2.4c-5.9,1.3-11.8,2.7-18,2.7c-3.3,0-4.1-0.5-5.4-3.5c-1.2-2.9-1.6-6-2-9
	c-0.3-1.9-0.6-3.8-1-5.6C422.4,264.3,422.8,262.2,424.6,260.5z M458.9,261.2c-10.3,0.3-20.1,1.7-30.1,2.3c-0.2,5.8-0.3,11.4,1.8,17
	c3.2-0.5,6.3-1,9.5-1.6c0.1-2.5,0-4.7-0.2-7c-0.2-2-0.3-4,0.2-6c0.3-1,0.9-1.8,2.1-1.8c1,0,1.6,0.8,1.9,1.7c0.2,0.6,0.3,1.2,0.4,1.9
	c0.5,2.7,0.7,5.4,0.6,8.1c0,0.6-0.3,1.3,0.5,1.8c3.6-0.9,7.1-2.6,10.6-4c0.8-0.3,1.3-1,1.4-1.9C457.7,268.4,458.5,265.1,458.9,261.2
	z"/>
<path class="st0" d="M436.2,328.3c-4.2,0.3-8,1.2-11.8,1.8c-4.7,0.7-9.5,1.6-14.3,1.6c-1.2,0-2.6,0.3-3.6-0.8
	c-0.5-1.3,0.2-1.7,1.3-2.1c2-0.7,4.1-1,6.1-1.1c7-0.4,13.9-1.5,20.8-2.5c3.1-0.5,4.6,0.5,5.3,3.6c0.7,3.3,0.8,6.7,0.9,10
	c0.5,11.1,0.4,22.2,0.3,33.2c0,0.9,0.3,1.6,0.6,2.3c1.9,5.7,5.3,10.7,8.2,15.9c1.1,1.9,2.3,3.7,3,5.8c0.3,0.8,0.8,1.7-0.1,2.6
	c-1.7,0.3-2.1-1.1-2.7-2.1c-2.2-3.9-4.6-7.6-7.1-11.3c-1.5-2.2-3.1-4.5-4.7-6.6c-1.2-1.7-1.9-3.4-1.9-5.5c0.1-8.1,0-16.2,0.2-24.3
	c0.1-5.4,0.4-10.9,0.2-16.3C436.9,331.1,436.6,329.8,436.2,328.3z"/>
<path class="st0" d="M435.3,388.9c1.2,0.2,1.9,0.9,2.4,1.6c2.4,3.1,4.7,6.2,7.1,9.3c0.8,1,1.3,2.2,1.7,3.4c0.5,1.6,0.1,2.9-1.1,3.6
	c-1.3,0.8-2.4,0.3-3.4-0.6c-1-0.8-1.7-1.8-2.4-2.9c-2-3.4-3.9-6.9-5.1-10.7C434.1,391.2,433.6,389.8,435.3,388.9z"/>
<path class="st0" d="M619.6,618.1c1.2,0.1,1.6,0.9,2.1,1.3c7-0.8,13.8-1.7,20.6-2.5c1.4-0.2,2.7-0.3,4-0.6c1.2-0.3,2.5-0.4,3.3-1.6
	c1.1-1.7,3.3-0.7,3.9,0.7c0.3,0.7,0.5,1.4,0.4,2.1c-0.3,6.2,0.9,12.3,1.1,18.5c0.3,10.1,0.9,20.1,1.1,30.2
	c0.2,6.9,0.7,13.8,1.3,20.6c0.1,0.6,0.1,1.3,0.1,1.9c-0.3,3.5-1.3,4.6-4.7,5.3c-2.4,0.5-4.9,0.2-7.3,0c-4.6-0.4-9.2-1.3-13.8-0.7
	c-2.1,0.3-4.1,0.5-6.2,0.7c-1.7,0.2-3.3-0.1-4.8-0.8c-1.7-0.7-2.7-2.1-2.8-4c-0.2-6.6-0.8-13.3-0.7-19.9c0.1-7-0.2-14-0.3-21
	c-0.2-8.6,0.1-17.3,0.7-25.9C617.7,620.8,617.7,619,619.6,618.1z M621.9,688.4c2.8,0.3,5.4,0.1,8-0.3c3.3-0.4,6.5-0.4,9.8,0.1
	c3.2,0.5,6.5,0.9,9.7,1.2c1.6,0.2,3.2,0.4,4.8-0.2c0.7-2.2,0-4.2-0.1-6.3c-0.4-5.8-0.8-11.6-1.1-17.4c-0.4-6-0.8-11.9-1-17.9
	c-0.2-6.9-0.6-13.8-1.3-20.6c-0.2-1.9-0.1-4-1.1-5.9c-1.7-0.5-3.5-0.9-5.3-0.8c-5.6,0.4-11.2,0.8-16.9,0.9c-1.9,0-3.7,0-5.5,0
	C620.4,632.5,620.5,684.2,621.9,688.4z"/>
<path class="st0" d="M584.6,615.6c0.4,1.1,0.1,1.8-0.2,2.3c-0.2,0.3-0.1,0.5,0.1,0.6c1,0.5,1.2,1.4,1.4,2.4
	c0.8,3.7,0.4,7.4,0.5,11.1c0.3,7.5,0.4,15,0.9,22.6c0.1,2,0.1,4,0.1,6c0,4.7,0.5,9.4,1,14.1c0.1,0.8,0.1,1.6,0.1,2.4
	c0.1,1.8-0.7,3.1-2.3,3.6c-4.7,1.6-9.5,2.3-14.4,1.1c-1.5-0.4-2.5-1.4-2.6-3.1c-0.2-2.3-0.6-4.7-0.8-7c-0.6-7.8-1-15.6-1.4-23.3
	c-0.4-7.2,0.3-14.3,0.2-21.5c0-2.7,0.9-5.2,1.5-7.7c0.3-1.3,1.1-2.3,2.4-2.8c4-1.7,8.2-2.1,12.5-1.3
	C583.9,615,584.3,615.4,584.6,615.6z M582.9,618.9c-3.1,2.1-6.8,1.1-9.7,2.6c-3,18.4-1.9,36.5-0.3,54.6c4.5,0,8.7,0,13.1,0
	c0.1-1.2,0.3-2.3,0.2-3.4c-0.4-6.4-0.8-12.9-1-19.3c-0.1-2.9-0.3-5.8-0.6-8.7c-0.5-4.4-1-8.8-1.1-13.3
	C583.4,627.5,583.1,623.4,582.9,618.9z"/>
<path class="st0" d="M704.4,624.2c-1.4-0.4-2.9,0.1-3.2-1.4s0.6-2.5,1.9-3.3c2.3-1.5,5-2.2,7.6-2.9c4.4-1.2,8.9-1.6,13.5-1.7
	c2.8,0,4.1,1.2,4,4c-0.1,4,0.1,8,0.5,12c0.4,3.6-1,5.1-4.6,5.9c-0.4,0.1-0.7,0.2-1.1,0.2c-3.8,0-7.6,0.4-11.4,0.7
	c-3,0.2-4.7-1.2-5.8-3.9C704.5,630.7,703.9,627.6,704.4,624.2z M709.6,633.2c4.9-0.2,9.6-1.3,14.6-1.9c0.2-4,0.5-7.8,0-11.8
	c-6.2-0.1-11.8,1.6-17.3,3.3C706.8,626.6,707.6,629.9,709.6,633.2z"/>
<path class="st0" d="M841.7,580.3c-1.7,0.4-2-0.9-2.3-2c-0.3-1.6,0.3-3,1.1-4.4c1.9-3.4,4.4-6.4,6.9-9.4c5.1-6.2,10.6-12,16-17.8
	c3.1-3.4,6.1-7,9.1-10.5c2.3-2.6,4.8-4.9,7.5-7.2c2.9-2.5,5.9-4.9,8.5-7.6c3.5-3.6,8-5.6,12.5-7.5c1.5-0.6,2.7-0.2,3.4,0.9
	c0.7,1.1,0.5,2.2-0.7,3.4c-2.2,2-4.8,3.6-7.6,4.8c-3.5,1.5-6.4,3.7-9.4,5.9c-8.6,6.6-15.3,14.9-22.2,23.1c-4.4,5.3-9,10.4-13.4,15.8
	C847.8,571.9,844.8,576.2,841.7,580.3L841.7,580.3z"/>
<path class="st0" d="M834.5,579.2c-2-1.4-2.2-2-1.1-4c1-1.9,2.2-3.7,3.3-5.6c2.5-4.4,5-8.8,7.6-13.2c8.1-14,18.6-26.1,30.5-37
	c3.7-3.4,7.3-6.8,11.7-9.3c2.8-1.5,5.7-2.8,8.6-4.1c0.6-0.2,1.2-0.3,1.8-0.4c1.1-0.1,2,0.4,2.4,1.4c0.4,0.9,0.1,1.8-0.6,2.5
	c-0.7,0.7-1.5,1.3-2.4,1.8c-3.5,2-7,4.2-10.7,6c-4.8,2.4-8.9,5.9-12.9,9.5c-8.6,7.8-15.5,17-22,26.5c-5,7.5-9,15.5-13.4,23.3
	C836.7,577.7,836.2,578.9,834.5,579.2z"/>
<path class="st0" d="M832.4,528.2c0.1,1.7-1.1,3-2.8,3.1c-1.5,0.1-3.1-1.2-3.1-2.7c-0.1-1.7,1.3-3.2,2.9-3.2
	C831.1,525.3,832.4,526.5,832.4,528.2z"/>
<path class="st0" d="M796.2,543.7c-2-0.6-2.9-1.9-3.1-3.8c-0.1-1.4,0.9-2.7,2.1-2.7c1.2,0,2.1,0.8,2.2,2.3
	C797.5,540.9,798.8,542.7,796.2,543.7z"/>
<path class="st0" d="M805,541.3c-1.2,1.8-2.6,1.6-4,1c-1-0.4-1.7-1.1-1.6-2.2c0.1-1.2,0.9-1.9,2.2-2
	C803.3,538.4,804.6,539.4,805,541.3z"/>
<path class="st0" d="M811.1,544.9c0,0.8,0.7,0.9,1.2,1.4c0.7,0.6,0.9,1.3,0.2,2.3c-1.5,0.7-3.1,0.4-4.5-0.6c-1-0.7-1.6-1.6-0.9-2.8
	c0.6-1.1,1.6-1.1,2.6-0.8C810.1,544.5,810.5,545.1,811.1,544.9L811.1,544.9z"/>
<path class="st0" d="M803,527.6c-1.6-0.1-2.9-1.5-2.9-3c0.1-1.3,0.9-2.1,2.1-2.1c1.4,0,3,1.9,2.9,3.4
	C804.9,527.1,804.2,527.7,803,527.6z"/>
<path class="st0" d="M818.6,544.8c1.7,0,2.5,0.7,2.4,1.9s-1.5,2.6-2.7,2.6c-1.3,0-2.4-1.1-2.3-2.4
	C816,545.5,816.9,544.8,818.6,544.8z"/>
<path class="st0" d="M804,514.7c-0.2,1.1-0.8,1.5-1.9,1.5c-1.6,0-3.1-1.3-3.1-2.7c0.1-1.2,0.9-2,2.1-1.9
	C802.5,511.6,804,513.3,804,514.7z"/>
<path class="st0" d="M810.5,517.4c-0.1,0.9-1.1,1.7-2.2,1.7c-1.3,0-2.6-1.5-2.4-2.7c0.1-1,1.1-1.9,2.1-1.8
	C809.1,514.7,810.6,516.3,810.5,517.4z"/>
<path class="st0" d="M797,531.2c0.9-2,1.4-2.4,2.6-1.9c1.2,0.5,2.3,2.7,1.9,3.8c-0.3,0.9-1.3,1.2-2.2,0.6
	C798.4,533.1,797.6,532.4,797,531.2z"/>
<path class="st0" d="M787.2,546c-2.2-1.9-2.2-3.4-0.1-5.2C789.7,541.8,789.8,543.5,787.2,546z"/>
<path class="st0" d="M792.7,529.2c1.7,0.7,2,2.1,2.4,3.2c-0.4,1.4-1.2,1.6-2.3,1.3c-1.1-0.4-1.8-1.2-2-2.3
	C790.7,530.1,791.4,529.4,792.7,529.2z"/>
<path class="st0" d="M797.8,545.5c2.8,1.8,2.9,2.8,0.8,4.9c-1.2-0.6-2.7-1.2-2.8-2.9C795.8,546.3,796.6,545.7,797.8,545.5z"/>
<path class="st0" d="M826.3,537.6c0.1,1.2-0.9,2.4-2,2.5c-1.2,0.1-2.2-0.9-2.3-2.2c0-1.2,0.7-2.2,1.8-2.3
	C825,535.5,826.2,536.4,826.3,537.6z"/>
<path class="st0" d="M821.7,526.5c1.4,0.2,1.9,1.3,2.4,2.5c-0.1,1.4-1,2-2.4,1.9c-1-0.1-1.7-0.6-1.9-1.7
	C819.5,527.7,820.2,526.8,821.7,526.5z"/>
<path class="st0" d="M808.2,536c-0.5,1.4-1.4,1.9-2.6,1.5c-1-0.4-1.7-1.1-1.6-2.3c0.1-0.8,0.5-1.5,1.3-1.6
	C806.9,533.5,807.6,534.6,808.2,536z"/>
<path class="st0" d="M815.4,511.6c-0.8,1.2-1.4,2.6-3.1,2.2c-0.8-0.2-1.2-0.9-1.1-1.7c0.1-1.1,0.7-2.1,1.8-2.4
	C814.4,509.4,815,510.2,815.4,511.6z"/>
<path class="st0" d="M819.9,535.2c0,1.8-0.9,2.4-2.4,2.5c-1,0.1-1.8-0.4-2-1.4c-0.2-0.9,0-1.7,0.9-2.1
	C817.8,533.6,818.9,534.2,819.9,535.2z"/>
<path class="st0" d="M811.1,544.9c0.5-0.8-0.5-1.2-0.6-1.9c-0.1-1.1,0.2-2,1.3-2.4c1-0.3,1.8,0.3,2.2,1.1c0.3,0.6,0.5,1.3,0.4,1.9
	C813.7,545.5,812.1,544.4,811.1,544.9L811.1,544.9z"/>
<path class="st0" d="M814.9,556.7c0.1,1-0.8,1.9-1.9,1.9c-1.1,0-2.2-0.8-2.3-1.9c-0.1-1.1,0.6-2,1.7-2
	C813.4,554.6,814.8,555.7,814.9,556.7z"/>
<path class="st0" d="M812.5,529.9c-1.2-0.1-2.2-1.2-2-2.4s0.8-1.8,2-1.7c1.3,0,2.1,1.1,2,2.4C814.4,529.2,813.4,530,812.5,529.9z"/>
<path class="st0" d="M809.3,507.8c-0.2,1-1.3,1.7-2.5,1.5c-1.1-0.2-1.8-0.7-1.7-2c0.1-1.1,1.1-1.9,2.3-1.7
	C808.5,505.8,809.5,506.9,809.3,507.8z"/>
<path class="st0" d="M799.1,521.3c-1.5,0.7-2.5,0-3.1-1.3c-0.6-1.5,0.1-2.4,1.4-2.9C799.9,518.3,800,518.8,799.1,521.3z"/>
<path class="st0" d="M792.3,537.8c-0.5,1.3-1.4,1.4-2.6,0.8c-1.5-0.8-1.7-1.3-1.2-3.2C790.8,534.9,791.1,535.1,792.3,537.8z"/>
<path class="st0" d="M822.2,514.9c-1.5-0.1-2.2-0.9-2.2-2.3c0-0.8,0.5-1.4,1.3-1.6c0.9-0.2,1.7,0,2.1,0.9
	C823.9,513.2,823.3,514.2,822.2,514.9z"/>
<path class="st0" d="M828.1,520.2c-2.2-1.3-2.2-1.5-0.4-3.3C830.1,517.9,830.1,518.3,828.1,520.2z"/>
<path class="st0" d="M819.7,517.4c0.4,1.3,0,2.1-1.2,2.5c-0.7,0.2-1.3,0-1.7-0.6c-0.5-0.7-0.4-1.4,0.1-2
	C817.8,516.3,818.7,516.8,819.7,517.4z"/>
<path class="st0" d="M592.3,589.5c-0.7,1.6-2.1,1.9-3.4,2.3c-3.9,1.4-8,1.7-12,2.1c-0.4,0-0.7,0-1.1-0.1c-1.1-0.3-2.1-0.8-2.1-2.2
	c0-1.3,0.9-1.9,2.1-2.1c1-0.2,2-0.4,3-0.4c3.4-0.1,6.7-0.5,10-1.1C590.1,588,591.6,587.5,592.3,589.5z"/>
</svg>
