<svg xmlns="http://www.w3.org/2000/svg" width="56" height="56" viewBox="0 0 140 112">
  <g transform="matrix(1 0 0 1 -13 91)">
    <path d="M45.4102 15.2344C47.998 15.2344 49.7559 14.3555 52.8809 11.6211L69.2383-3.07617C72.7539 0.78125 78.0762 2.88086 84.8633 2.88086L101.709 2.88086L118.018 16.8457C120.996 19.3848 122.607 20.7031 124.951 20.7031C128.32 20.7031 130.225 18.3105 130.225 14.5996L130.225 2.88086L132.275 2.88086C144.531 2.88086 152.686-4.54102 152.686-17.2852L152.686-46.1426C152.686-58.9355 144.531-66.3574 132.275-66.3574L124.609-66.3574L124.609-70.0684C124.609-83.3008 116.748-91.0156 103.467-91.0156L33.5938-91.0156C20.8496-91.0156 12.4512-83.3008 12.4512-70.0684L12.4512-25.0977C12.4512-11.8164 20.8496-4.15039 33.5938-4.15039L40.0391-4.15039L40.0391 9.22852C40.0391 12.9883 41.9434 15.2344 45.4102 15.2344ZM47.4121-7.42188C47.4121-10.2051 45.752-11.4746 43.6035-11.4746L34.082-11.4746C25.4395-11.4746 20.3125-16.2109 20.3125-25.293L20.3125-69.7754C20.3125-78.8574 25.4395-83.6426 34.082-83.6426L102.979-83.6426C111.621-83.6426 116.748-78.8574 116.748-69.7754L116.748-66.3574L84.8633-66.3574C72.0703-66.3574 64.502-58.9355 64.502-46.1426L64.502-17.2852C64.502-14.6484 64.7949-12.2559 65.4297-10.1074L47.4121 6.54297ZM122.9 11.8652L107.227-2.19727C105.273-3.90625 104.102-4.49219 101.416-4.49219L85.3516-4.49219C77.1973-4.49219 72.3145-8.88672 72.3145-17.5293L72.3633-45.8984C72.3633-54.4922 77.1973-58.9844 85.3516-58.9844L131.836-58.9844C139.941-58.9844 144.824-54.4922 144.824-45.8984L144.824-17.5293C144.824-8.88672 139.941-4.49219 131.836-4.49219L126.66-4.49219C124.561-4.49219 122.9-3.22266 122.9-0.488281Z" />
  </g>
</svg>